<?xml version="1.0" encoding="UTF-8"?>
<svg version="1.1" xmlns="http://www.w3.org/2000/svg" width="600" height="144">
<path d="M0 0 C28 0 28 0 34.1875 4.8125 C35.52113283 6.83496065 36.79383661 8.89902559 38 11 C39.46864265 12.85854778 40.96897081 14.69249876 42.5 16.5 C43.2321875 17.4075 43.964375 18.315 44.71875 19.25 C47.84842054 23.02275353 51.17283252 26.60152498 54.4921875 30.20703125 C58.4972324 34.66747845 62.25318216 39.32100284 66 44 C69.74888398 42.75037201 70.64619319 41.22103014 73.0625 38.125 C76.25774361 34.11670413 79.51929973 30.26849608 83 26.5 C87.01893321 22.13321476 90.81057155 17.64062934 94.50390625 12.99609375 C98.20595829 8.5524726 102.13092183 4.29897574 106 0 C115.24 0 124.48 0 134 0 C134 41.25 134 82.5 134 125 C123.44 125 112.88 125 102 125 C101.67 100.58 101.34 76.16 101 51 C94.10171009 58.60506559 94.10171009 58.60506559 87.5625 66.4375 C83.60395178 71.33524683 79.44683829 75.97396317 75.1640625 80.58984375 C72.97909501 82.87577391 72.97909501 82.87577391 71.5859375 85.31640625 C70 87 70 87 67.08203125 87.51953125 C63.17329221 86.86064368 62.18794291 85.71534329 59.6875 82.6875 C58.91792969 81.77355469 58.14835937 80.85960938 57.35546875 79.91796875 C56.57816406 78.95503906 55.80085938 77.99210937 55 77 C54.25363281 76.08863281 53.50726563 75.17726563 52.73828125 74.23828125 C51.24394161 72.41012752 49.75436197 70.57807277 48.26953125 68.7421875 C45.30194635 65.15656857 42.19014815 61.71713769 39.04296875 58.2890625 C36.94144493 55.93439145 34.97159123 53.46448903 33 51 C32.67 75.42 32.34 99.84 32 125 C21.44 125 10.88 125 0 125 C0 83.75 0 42.5 0 0 Z " fill="#000000" transform="translate(155,9)"/>
<path d="M0 0 C10.395 -0.061875 20.79 -0.12375 31.5 -0.1875 C34.74779297 -0.21481201 37.99558594 -0.24212402 41.34179688 -0.27026367 C43.96744416 -0.27904008 46.59309558 -0.28668126 49.21875 -0.29296875 C49.87605103 -0.30080887 50.53335205 -0.30864899 51.21057129 -0.31672668 C70.86054136 -0.53880316 90.43744114 3.07842514 105.53515625 16.49609375 C113.54573346 24.63362147 118.68849387 33.07759532 122 44 C122.36738281 45.19302734 122.36738281 45.19302734 122.7421875 46.41015625 C126.9703133 63.29369967 123.97474344 81.74421633 115.87890625 96.87109375 C107.71756059 110.46202488 93.91922609 118.46898046 78.8125 122.25 C71.66237285 124.00506269 64.70583193 125.12813036 57.33032227 125.11352539 C56.03179321 125.11340454 54.73326416 125.11328369 53.39538574 125.11315918 C52.03572541 125.10812561 50.67606556 125.10295916 49.31640625 125.09765625 C48.06533081 125.09664917 46.81425537 125.09564209 45.52526855 125.09460449 C40.87100299 125.08938939 36.21675053 125.07542816 31.5625 125.0625 C21.146875 125.041875 10.73125 125.02125 0 125 C0 83.75 0 42.5 0 0 Z M32 24 C32 49.41 32 74.82 32 101 C58.64572502 102.57249752 58.64572502 102.57249752 81 91 C89.25734958 82.4354002 91.61646809 71.87360137 91.47265625 60.29931641 C91.01071183 49.1398439 87.24612656 40.14607419 79.29296875 32.3203125 C65.83470773 20.9303737 48.39671581 24 32 24 Z " fill="#000000" transform="translate(312,9)"/>
<path d="M0 0 C12.54 0 25.08 0 38 0 C39.06734375 2.43761719 40.1346875 4.87523437 41.234375 7.38671875 C49.48427315 26.21627201 57.77178913 45.02853579 66.125 63.8125 C66.96029412 65.69213527 67.7955806 67.57177393 68.63085938 69.45141602 C72.28765586 77.67688042 75.95092875 85.89928104 79.63998413 94.1103363 C81.15650136 97.48678975 82.66920576 100.86494462 84.18157959 104.24325562 C84.88803657 105.81810381 85.59654006 107.39203574 86.30718994 108.96499634 C87.27741936 111.11251668 88.2409817 113.26291009 89.203125 115.4140625 C89.48954865 116.04302933 89.77597229 116.67199615 90.07107544 117.32002258 C91.30026646 120.08462897 92 121.93270046 92 125 C80.78 125 69.56 125 58 125 C54.54062498 117.38937497 51.21536826 109.71688382 48 102 C29.85 101.67 11.7 101.34 -7 101 C-7.99 104.3 -8.98 107.6 -10 111 C-10.84456049 113.36525755 -11.71538276 115.72149121 -12.625 118.0625 C-13.05039062 119.16722656 -13.47578125 120.27195312 -13.9140625 121.41015625 C-15 124 -15 124 -16 125 C-18.44830426 125.08843793 -20.86820599 125.11528752 -23.31640625 125.09765625 C-24.04746078 125.0962413 -24.77851532 125.09482635 -25.53172302 125.09336853 C-27.87535632 125.08775408 -30.21889539 125.07519922 -32.5625 125.0625 C-34.14778508 125.05748686 -35.73307166 125.05292363 -37.31835938 125.04882812 C-41.2122761 125.03777997 -45.10612205 125.02050572 -49 125 C-48.37454852 119.68366244 -46.65243593 115.21320834 -44.625 110.3125 C-44.27236588 109.44562057 -43.91973175 108.57874115 -43.55641174 107.68559265 C-42.3764591 104.78811082 -41.18809816 101.89415022 -40 99 C-39.16456811 96.95187032 -38.32986877 94.9034417 -37.49584961 92.85473633 C-36.14824153 89.54464715 -34.80015358 86.23476117 -33.44993591 82.92573547 C-28.0049498 69.57874157 -22.6202517 56.20749913 -17.23413086 42.83666992 C-15.58343828 38.73904995 -13.93148692 34.64193825 -12.27929688 30.54492188 C-11.4982363 28.60789027 -10.71719715 26.67085002 -9.93617058 24.7338047 C-9.21729118 22.95091581 -8.49836359 21.16804635 -7.7794342 19.38517761 C-7.33989914 18.29473648 -6.90036407 17.20429535 -6.44750977 16.08081055 C-5.8806118 14.67462715 -5.8806118 14.67462715 -5.30226135 13.24003601 C-3.52930651 8.82891107 -1.7656255 4.41406374 0 0 Z M19 32 C16.57663931 38.38951109 14.15582562 44.77998279 11.73681641 51.17114258 C10.91286502 53.34714842 10.08832154 55.52293015 9.26318359 57.69848633 C8.0801628 60.81794032 6.89924419 63.93818289 5.71875 67.05859375 C5.16096863 68.52733192 5.16096863 68.52733192 4.59191895 70.02574158 C4.08138977 71.37702904 4.08138977 71.37702904 3.56054688 72.75561523 C3.2585437 73.55281479 2.95654053 74.35001434 2.64538574 75.17137146 C1.94453094 76.83396933 1.94453094 76.83396933 2 78 C13.88 78 25.76 78 38 78 C36.0416223 71.47207434 34.06826113 65.36823544 31.42578125 59.1484375 C31.09708542 58.36352936 30.76838959 57.57862122 30.42973328 56.76992798 C29.3953742 54.3029378 28.3540842 51.83894705 27.3125 49.375 C26.60305158 47.68639281 25.89406327 45.99759222 25.18554688 44.30859375 C23.46233074 40.20347913 21.7328993 36.10103589 20 32 C19.67 32 19.34 32 19 32 Z " fill="#000000" transform="translate(49,9)"/>
<path d="M0 0 C46.86 0 93.72 0 142 0 C142 46.86 142 93.72 142 142 C139.69 140.02 137.38 138.04 135 136 C133.11457865 134.69301955 131.22876906 133.38642684 129.32850647 132.10112 C117.93726704 124.1644414 105.44057907 114.30705715 102.10662842 100.22711182 C98.86976406 80.28442723 101.08909911 58.98754663 103 39 C102.27005829 39.08438324 101.54011658 39.16876648 100.78805542 39.25570679 C91.49616963 40.27964149 82.21238691 40.96799319 72.875 41.375 C71.76576109 41.4235721 71.76576109 41.4235721 70.63411331 41.47312546 C51.76466234 42.20200826 37.06240313 41.37017573 22.46374512 28.05853271 C14.20127084 19.87270156 6.30494466 10.80257679 0 1 C0 0.67 0 0.34 0 0 Z " fill="#000000" transform="translate(458,0)"/>
<path d="M0 0 C0 18.48 0 36.96 0 56 C18.48 56 36.96 56 56 56 C48.02771373 71.94457253 31.98687875 90.05846417 16 98 C-2.26554349 103.38192653 -23.42257227 100.44084906 -42 98 C-48.75698807 49.4814548 -48.75698807 49.4814548 -38.10644531 33.32714844 C-31.50177174 24.69801099 -11.80304046 0 0 0 Z " fill="#000000" transform="translate(498,46)"/>
</svg>
