<?xml version="1.0" encoding="UTF-8" standalone="no"?>
<svg
   xmlns:dc="http://purl.org/dc/elements/1.1/"
   xmlns:cc="http://creativecommons.org/ns#"
   xmlns:rdf="http://www.w3.org/1999/02/22-rdf-syntax-ns#"
   xmlns:svg="http://www.w3.org/2000/svg"
   xmlns="http://www.w3.org/2000/svg"
   viewBox="0 0 296.13333 227.08"
   height="227.08"
   width="296.13333"
   xml:space="preserve"
   id="svg2"
   version="1.1"><metadata
     id="metadata8"><rdf:RDF><cc:Work
         rdf:about=""><dc:format>image/svg+xml</dc:format><dc:type
           rdf:resource="http://purl.org/dc/dcmitype/StillImage" /></cc:Work></rdf:RDF></metadata><defs
     id="defs6"><clipPath
       id="clipPath96"
       clipPathUnits="userSpaceOnUse"><path
         id="path94"
         d="m 1129.23,1488.29 c -34.94,32.13 -73.47,61.76 -115.68,88.1 -161.245,-36.53 -291.48,-155.68 -343.667,-310.41 29.543,26.65 100.144,85.15 202.301,136.73 66.425,33.53 153.716,67.66 257.046,85.58 z" /></clipPath><radialGradient
       id="radialGradient102"
       spreadMethod="pad"
       gradientTransform="matrix(472.792,0,0,-472.792,1118.07,1115.26)"
       gradientUnits="userSpaceOnUse"
       r="1"
       cy="0"
       cx="0"
       fy="0"
       fx="0"><stop
         id="stop98"
         offset="0"
         style="stop-opacity:1;stop-color:#8ddaf8" /><stop
         id="stop100"
         offset="1"
         style="stop-opacity:1;stop-color:#176fc1" /></radialGradient><clipPath
       id="clipPath112"
       clipPathUnits="userSpaceOnUse"><path
         id="path110"
         d="m 1403.79,1491.69 c -68.75,52.31 -152.19,86.24 -242.96,94.42 41.2,-26.34 78.49,-54.87 112.09,-85.04 41.9,0.19 85.61,-2.67 130.87,-9.38 z" /></clipPath><radialGradient
       id="radialGradient118"
       spreadMethod="pad"
       gradientTransform="matrix(472.857,0,0,-472.857,1118.07,1115.18)"
       gradientUnits="userSpaceOnUse"
       r="1"
       cy="0"
       cx="0"
       fy="0"
       fx="0"><stop
         id="stop114"
         offset="0"
         style="stop-opacity:1;stop-color:#8ddaf8" /><stop
         id="stop116"
         offset="1"
         style="stop-opacity:1;stop-color:#176fc1" /></radialGradient><clipPath
       id="clipPath128"
       clipPathUnits="userSpaceOnUse"><path
         id="path126"
         d="m 1259.41,1500.85 c -35.24,30.88 -74.48,59.95 -117.9,86.63 -7.76,0.38 -15.59,0.57 -23.43,0.57 -31.42,0 -62.14,-3.09 -91.86,-8.97 40.46,-25.97 78.58,-55.81 113.97,-88.99 37.75,6.06 77.56,9.91 119.22,10.76 z" /></clipPath><radialGradient
       id="radialGradient134"
       spreadMethod="pad"
       gradientTransform="matrix(472.81,0,0,-472.81,1118.06,1115.25)"
       gradientUnits="userSpaceOnUse"
       r="1"
       cy="0"
       cx="0"
       fy="0"
       fx="0"><stop
         id="stop130"
         offset="0"
         style="stop-opacity:1;stop-color:#8ddaf8" /><stop
         id="stop132"
         offset="1"
         style="stop-opacity:1;stop-color:#176fc1" /></radialGradient><clipPath
       id="clipPath144"
       clipPathUnits="userSpaceOnUse"><path
         id="path142"
         d="m 1386.8,1374.09 c 126.3,-177.19 155.27,-382.512 107.62,-544.711 60.47,79.445 96.45,178.531 96.45,285.871 0,90.7 -25.68,175.51 -70.15,247.54 -45.38,8.32 -90.17,11.77 -133.92,11.3 z" /></clipPath><radialGradient
       id="radialGradient150"
       spreadMethod="pad"
       gradientTransform="matrix(472.766,0,0,-472.766,1118.13,1115.24)"
       gradientUnits="userSpaceOnUse"
       r="1"
       cy="0"
       cx="0"
       fy="0"
       fx="0"><stop
         id="stop146"
         offset="0"
         style="stop-opacity:1;stop-color:#8ddaf8" /><stop
         id="stop148"
         offset="1"
         style="stop-opacity:1;stop-color:#176fc1" /></radialGradient><clipPath
       id="clipPath160"
       clipPathUnits="userSpaceOnUse"><path
         id="path158"
         d="m 1269.31,1492.03 c -42.23,-0.4 -82.59,-3.94 -120.85,-9.76 35.78,-34.5 68.65,-72.49 98.21,-113.39 39.6,7.53 80.53,12.41 122.49,13.87 -28.54,38.09 -61.73,74.77 -99.85,109.28 z" /></clipPath><radialGradient
       id="radialGradient166"
       spreadMethod="pad"
       gradientTransform="matrix(472.821,0,0,-472.821,1118.05,1115.25)"
       gradientUnits="userSpaceOnUse"
       r="1"
       cy="0"
       cx="0"
       fy="0"
       fx="0"><stop
         id="stop162"
         offset="0"
         style="stop-opacity:1;stop-color:#8ddaf8" /><stop
         id="stop164"
         offset="1"
         style="stop-opacity:1;stop-color:#176fc1" /></radialGradient><clipPath
       id="clipPath176"
       clipPathUnits="userSpaceOnUse"><path
         id="path174"
         d="m 1380.3,1383.03 c 43.72,0.84 88.47,-2.15 133.89,-9.91 -26.44,40.43 -58.84,76.61 -96,107.22 -46.87,7.8 -92.04,11.36 -135.33,11.65 37.14,-34.48 69.53,-71.07 97.44,-108.96 z" /></clipPath><radialGradient
       id="radialGradient182"
       spreadMethod="pad"
       gradientTransform="matrix(472.829,0,0,-472.829,1118.05,1115.27)"
       gradientUnits="userSpaceOnUse"
       r="1"
       cy="0"
       cx="0"
       fy="0"
       fx="0"><stop
         id="stop178"
         offset="0"
         style="stop-opacity:1;stop-color:#8ddaf8" /><stop
         id="stop180"
         offset="1"
         style="stop-opacity:1;stop-color:#176fc1" /></radialGradient><clipPath
       id="clipPath192"
       clipPathUnits="userSpaceOnUse"><path
         id="path190"
         d="m 1242.95,1358.95 c -127.74,-25.2 -240.98,-77.74 -326.973,-128.03 -158.692,-92.86 -261.528,-198.26 -262.539,-199.3 l -0.942,0.9 C 691.738,811.109 885.57,642.422 1118.08,642.422 c 95.46,0 184.39,28.449 258.82,77.308 l -1.03,0.383 c 57.11,155.438 20.63,422.367 -132.92,638.837 z" /></clipPath><radialGradient
       id="radialGradient198"
       spreadMethod="pad"
       gradientTransform="matrix(472.822,0,0,-472.822,1118.06,1115.24)"
       gradientUnits="userSpaceOnUse"
       r="1"
       cy="0"
       cx="0"
       fy="0"
       fx="0"><stop
         id="stop194"
         offset="0"
         style="stop-opacity:1;stop-color:#8ddaf8" /><stop
         id="stop196"
         offset="1"
         style="stop-opacity:1;stop-color:#176fc1" /></radialGradient><clipPath
       id="clipPath208"
       clipPathUnits="userSpaceOnUse"><path
         id="path206"
         d="m 1375.69,1373.94 c -42.17,-1.09 -83.38,-5.79 -123.2,-13.17 43.32,-61.46 79.19,-129.29 106.09,-201.71 57.55,-154.83 68.29,-315.189 29.34,-431.837 33.64,23.465 64.09,51.179 90.58,82.363 57.14,164.453 30.91,380.184 -102.81,564.354 z" /></clipPath><radialGradient
       id="radialGradient214"
       spreadMethod="pad"
       gradientTransform="matrix(472.827,0,0,-472.827,1118.06,1115.24)"
       gradientUnits="userSpaceOnUse"
       r="1"
       cy="0"
       cx="0"
       fy="0"
       fx="0"><stop
         id="stop210"
         offset="0"
         style="stop-opacity:1;stop-color:#8ddaf8" /><stop
         id="stop212"
         offset="1"
         style="stop-opacity:1;stop-color:#176fc1" /></radialGradient><clipPath
       id="clipPath224"
       clipPathUnits="userSpaceOnUse"><path
         id="path222"
         d="m 1237.14,1366.96 c -29.11,40.03 -62.24,78.24 -99.61,113.59 -105.12,-17.38 -193.835,-51.86 -260.975,-85.73 -119.414,-60.26 -195.246,-129.96 -212.141,-146.23 -12.445,-42.31 -19.176,-87.07 -19.176,-133.34 0,-24.96 1.973,-49.45 5.7,-73.36 20.3,20.07 117.957,113.4 260.285,196.68 85.82,50.24 198.597,102.64 325.917,128.39 z" /></clipPath><radialGradient
       id="radialGradient230"
       spreadMethod="pad"
       gradientTransform="matrix(472.821,0,0,-472.821,1118.06,1115.24)"
       gradientUnits="userSpaceOnUse"
       r="1"
       cy="0"
       cx="0"
       fy="0"
       fx="0"><stop
         id="stop226"
         offset="0"
         style="stop-opacity:1;stop-color:#8ddaf8" /><stop
         id="stop228"
         offset="1"
         style="stop-opacity:1;stop-color:#176fc1" /></radialGradient></defs><g
     transform="matrix(1.3333333,0,0,-1.3333333,0,227.08)"
     id="g10"><g
       transform="scale(0.1)"
       id="g12"><path
         id="path14"
         style="fill:#176fc1;fill-opacity:1;fill-rule:nonzero;stroke:none"
         d="m 1074.13,276.461 c 0,-25.813 4.19,-29.68 30.54,-29.68 90.61,0 128.02,32.508 128.02,103.528 0,65 -27.91,104.23 -128.02,104.23 -26.35,0 -30.54,-2.141 -30.54,-29.699 z m -46.91,-7.422 V 432.25 c 0,26.512 -17.38,28.969 -45.833,28.969 v 7.062 h 123.283 c 87.46,0 180.19,-12.691 180.19,-117.972 C 1284.86,245.359 1187.38,233 1104.67,233 h -77.07 l -0.38,36.039" /><path
         id="path16"
         style="fill:#176fc1;fill-opacity:1;fill-rule:nonzero;stroke:none"
         d="M 470.281,432.25 V 314.602 c 0,-48.383 -10.531,-85.153 -120.129,-85.153 -109.058,0 -125.914,35.34 -125.914,85.153 V 432.25 c 0,26.512 -16.855,28.969 -45.84,28.969 v 7.062 h 91.551 v -7.062 c 0,0 1.172,-2.457 1.172,-28.969 V 314.602 c 0,-36.024 12.645,-71.352 81.152,-71.352 75.872,0 87.969,29.309 87.969,71.352 V 432.25 c 0,26.512 -17.375,28.969 -45.832,28.969 v 7.062 h 76.586 l -0.715,-36.031" /><path
         id="path18"
         style="fill:#176fc1;fill-opacity:1;fill-rule:nonzero;stroke:none"
         d="m 672.945,245.359 c -115.382,0 -130.136,70.289 -130.136,115.891 0,36.379 6.859,96.82 91.683,96.82 65.309,0 86.383,-31.808 93.246,-51.609 h 13.168 l -4.738,55.488 c -23.188,4.242 -59.016,9.871 -101.156,9.871 -112.75,0 -144.371,-48.05 -144.371,-113.398 0,-75.262 50.586,-128.973 155.957,-128.973 30.59,0 55.328,1.992 77.031,5.91 v 14.68 c -12.113,-2.48 -28.016,-4.68 -50.684,-4.68" /><path
         id="path20"
         style="fill:#176fc1;fill-opacity:1;fill-rule:nonzero;stroke:none"
         d="m 913.645,359.828 c -48.133,18.031 -113.942,28.262 -113.942,59.723 0,23.308 32.625,38.519 69.695,38.519 59.188,0 81.301,-21.91 86.29,-40.629 h 13.82 l -3.848,48.387 c -24.902,3.16 -48.703,5.992 -85.762,5.992 -69.707,0 -124.46,-17.281 -124.46,-59.718 0,-22.571 11.625,-35.313 35.957,-47.321 51.437,-25.09 143.261,-36.75 143.261,-74.91 0,-24.371 -31.519,-44.512 -80.191,-44.512 -5.156,0 -10.027,0.172 -14.707,0.5 -14.641,-0.5 -47.422,2.743 -72.68,6.411 v -17.391 c 19.582,-2.098 53.176,-5.43 82.961,-5.43 75.758,0 136.637,21.199 136.637,66.09 0,33.59 -29.336,48.039 -73.031,64.289" /><path
         id="path22"
         style="fill:#231f20;fill-opacity:1;fill-rule:nonzero;stroke:none"
         d="m 1544.05,244.43 c -16.6,-5.301 -43.47,-13.41 -93.77,-13.41 -105.99,0 -144.08,46.191 -144.08,125.531 0,64.179 27.34,116.347 136.27,116.347 43.45,0 75.2,-5.296 97.67,-10.57 l 2.94,-58.906 h -14.18 c -1.94,17.988 -28.81,52.558 -81.54,52.558 -71.81,0 -83.54,-55.359 -83.54,-99.429 0,-55.711 26.88,-105.789 94.76,-105.789 46.4,0 70.32,10.59 85.47,17.988 v -24.32" /><path
         id="path24"
         style="fill:#231f20;fill-opacity:1;fill-rule:nonzero;stroke:none"
         d="m 1755.02,411.898 c -3.89,19.032 -16.6,44.082 -68.36,44.082 -39.57,0 -61.54,-14.468 -61.54,-32.789 0,-34.55 83.02,-50.773 119.65,-71.242 23.93,-13.39 41.03,-28.91 41.03,-52.879 0,-49.711 -53.23,-68.05 -127.47,-68.05 -38.59,0 -70.33,6.351 -86.93,9.519 l -2.92,58.172 h 14.14 c 5.87,-17.973 17.1,-50.77 81.07,-50.77 42.51,0 66.43,16.579 66.43,38.079 0,34.57 -57.14,47.242 -102.07,68.039 -29.3,13.761 -53.24,30.711 -53.24,58.902 0,38.07 40.55,59.937 111.85,59.937 32.71,0 64.94,-4.57 79.59,-6.339 l 2.94,-54.661 h -14.17" /><path
         id="path26"
         style="fill:#231f20;fill-opacity:1;fill-rule:nonzero;stroke:none"
         d="m 1786.77,243.359 c 34.18,0 41.52,5.289 41.52,32.782 V 427.77 c 0,27.5 -7.34,32.8 -41.52,32.8 v 8.821 h 230.04 l 2.92,-51.129 h -14.16 c -1.95,19.027 -8.3,34.898 -63.01,34.898 h -31.26 c -23.91,0 -29.29,-5.66 -29.29,-25.39 v -62.411 h 63.97 c 31.75,0 36.64,4.95 36.64,28.2 h 13.18 V 320.59 h -13.18 c 0,21.129 -4.89,28.558 -36.64,28.558 h -63.97 v -73.007 c 0,-23.61 3.9,-25.379 29.29,-25.379 h 44.95 c 42,0 55.67,12.699 57.14,34.898 h 14.16 l -2.93,-51.101 h -237.85 v 8.8" /><path
         id="path28"
         style="fill:#231f20;fill-opacity:1;fill-rule:nonzero;stroke:none"
         d="M 57.8438,123.371 C 56,144.199 49.4102,153 38.2461,153 21.5781,153 14.2813,138.359 14.2813,97.1797 14.2813,56 21.5781,41.3594 38.2461,41.3594 c 13.3789,0 21.0469,9.1523 21.4023,33.6601 H 73.9297 C 73.5742,45.7617 60.7461,29.2695 38.2461,29.2695 14.6328,29.2695 0,47.2188 0,97.1797 0,147.16 14.6328,165.09 38.2461,165.09 c 19.5977,0 31.6562,-13.531 33.8594,-41.719 H 57.8438" /><path
         id="path30"
         style="fill:#231f20;fill-opacity:1;fill-rule:nonzero;stroke:none"
         d="m 118.609,40.25 c 11.157,0 15.918,6.9688 15.918,38.4492 0,31.4918 -4.761,38.4218 -15.918,38.4218 -11.164,0 -15.949,-6.93 -15.949,-38.4218 0,-31.4804 4.785,-38.4492 15.949,-38.4492 z m 0,87.859 c 19.946,0 29.094,-15.019 29.094,-49.4098 0,-34.4179 -9.148,-49.4297 -29.094,-49.4297 -19.9606,0 -29.1285,15.0118 -29.1285,49.4297 0,34.3908 9.1679,49.4098 29.1285,49.4098" /><path
         id="path32"
         style="fill:#231f20;fill-opacity:1;fill-rule:nonzero;stroke:none"
         d="M 168.922,31.1211 V 126.289 H 181 v -10.437 c 5.129,6.046 13.016,12.257 22.145,12.257 7.503,0 14.664,-4.929 17.035,-12.07 5.304,5.859 12.812,12.07 22.144,12.07 12.426,0 19.203,-8.418 19.203,-21.961 V 31.1211 h -13.164 v 73.2069 c 0,9.883 -2.929,12.793 -9.883,12.793 -8.054,0 -12.628,-5.672 -16.648,-9.871 V 31.1211 h -13.195 v 73.2069 c 0,9.883 -3.461,12.793 -10.414,12.793 -8.071,0 -12.633,-5.672 -16.121,-9.871 V 31.1211 h -13.18" /><path
         id="path34"
         style="fill:#231f20;fill-opacity:1;fill-rule:nonzero;stroke:none"
         d="m 303.824,48.6914 c 3.848,-3.8633 8.406,-8.4414 14.274,-8.4414 11.148,0 17.57,9.1602 17.57,38.4492 0,29.2808 -6.941,38.4218 -17.934,38.4218 -4.035,0 -9.886,-3.652 -13.91,-9.141 z m -2.191,68.4296 h 0.347 c 4.387,6.789 10.993,10.988 19.403,10.988 15.019,0 27.445,-12.8 27.445,-49.4098 0,-36.5976 -12.426,-49.4297 -27.445,-49.4297 -7.145,0 -13.176,4.4102 -17.559,8.8008 V 0 h -13.187 v 126.289 h 10.996 v -9.168" /><path
         id="path36"
         style="fill:#231f20;fill-opacity:1;fill-rule:nonzero;stroke:none"
         d="M 425.719,31.1211 H 413.27 v 10.4297 c -6.223,-6.4219 -15.375,-12.2813 -21.59,-12.2813 -13.196,0 -20.875,7.3321 -20.875,24.9024 v 72.1171 h 13.183 V 56 c 0,-10.9805 3.285,-15.75 10.426,-15.75 6.414,0 12.258,4.4102 18.125,11.7188 v 74.3202 h 13.18 V 31.1211" /><path
         id="path38"
         style="fill:#231f20;fill-opacity:1;fill-rule:nonzero;stroke:none"
         d="m 440.359,126.289 h 12.801 v 31.852 h 13.18 v -31.852 h 17.562 v -10.98 H 466.34 V 48.6914 c 0,-5.4805 2.933,-9.5117 9.519,-9.5117 2.563,0 5.864,1.0703 8.043,1.8086 v -9.8672 c -3.648,-1.1094 -6.961,-1.8516 -12.437,-1.8516 -12.442,0 -18.305,5.8594 -18.305,20.5196 v 65.5199 h -12.801 v 10.98" /><path
         id="path40"
         style="fill:#231f20;fill-opacity:1;fill-rule:nonzero;stroke:none"
         d="m 541.195,87.4805 c -0.351,20.4995 -4.023,29.6405 -15.925,29.6405 -9.504,0 -15.723,-6.93 -15.93,-29.6405 z M 509.34,76.5117 v -5.3125 c 0,-23.2383 5.316,-30.9492 17.765,-30.9492 10.067,0 14.278,9.3398 15.918,17.9688 l 12.45,-1.5 c -1.996,-14.25 -12.813,-27.4493 -30.203,-27.4493 -19.95,0 -29.086,15.0118 -29.086,49.4297 0,34.3908 9.136,49.4098 29.086,49.4098 20.14,0 29.121,-17.918 29.121,-45.3707 V 76.5117 H 509.34" /><path
         id="path42"
         style="fill:#231f20;fill-opacity:1;fill-rule:nonzero;stroke:none"
         d="m 573.063,126.289 h 13.16 V 114.75 h 0.379 c 7.855,11.539 13.718,13.359 24.152,13.359 V 115.66 c -9.899,0 -17.371,-3.281 -24.531,-16.8319 v -67.707 h -13.16 v 95.1679" /><path
         id="path44"
         style="fill:#231f20;fill-opacity:1;fill-rule:nonzero;stroke:none"
         d="M 711.781,129.211 C 710.68,142.75 705.191,153 691.449,153 c -10.976,0 -18.109,-7.301 -18.109,-17.379 0,-29.82 53.078,-30.191 53.078,-72.6718 0,-21.039 -12.078,-33.6797 -33.859,-33.6797 -20.68,0 -33.129,15.1993 -33.481,37.3594 h 13.156 c 0.379,-15.5781 7.711,-25.2695 21.786,-25.2695 11.898,0 19.578,7.6914 19.578,21.7695 0,30.0313 -53.071,33.5 -53.071,71.1991 0,18.672 12.813,30.762 31.856,30.762 19.039,0 31.48,-12.801 32.582,-35.879 h -13.184" /><path
         id="path46"
         style="fill:#231f20;fill-opacity:1;fill-rule:nonzero;stroke:none"
         d="m 784.258,98.1094 c -1.278,14.2696 -6.957,19.0116 -15.016,19.0116 -11.152,0 -15.918,-6.93 -15.918,-38.4218 0,-31.4804 4.766,-38.4492 15.918,-38.4492 8.434,0 13.18,4.4102 15.367,20.8789 h 12.817 C 795.25,42.4688 786.449,29.2695 769.242,29.2695 c -19.949,0 -29.101,15.0118 -29.101,49.4297 0,34.3908 9.152,49.4098 29.101,49.4098 17.207,0 25.266,-11.328 27.832,-29.9996 h -12.816" /><path
         id="path48"
         style="fill:#231f20;fill-opacity:1;fill-rule:nonzero;stroke:none"
         d="m 818.66,126.289 h 13.18 V 31.1211 h -13.18 z m 0,36.973 h 13.18 v -15.371 h -13.18 v 15.371" /><path
         id="path50"
         style="fill:#231f20;fill-opacity:1;fill-rule:nonzero;stroke:none"
         d="m 896.988,87.4805 c -0.351,20.4995 -4.015,29.6405 -15.902,29.6405 -9.543,0 -15.766,-6.93 -15.934,-29.6405 z M 865.152,76.5117 v -5.3125 c 0,-23.2383 5.309,-30.9492 17.774,-30.9492 10.047,0 14.258,9.3398 15.918,17.9688 l 12.433,-1.5 c -2.019,-14.25 -12.816,-27.4493 -30.191,-27.4493 -19.965,0 -29.113,15.0118 -29.113,49.4297 0,34.3908 9.148,49.4098 29.113,49.4098 20.129,0 29.094,-17.918 29.094,-45.3707 v -6.2266 h -45.028" /><path
         id="path52"
         style="fill:#231f20;fill-opacity:1;fill-rule:nonzero;stroke:none"
         d="m 929.945,126.289 h 12.453 v -10.437 c 6.215,6.398 15.368,12.257 21.579,12.257 13.187,0 20.882,-7.3 20.882,-24.871 V 31.1211 H 971.672 V 101.41 c 0,10.969 -3.289,15.711 -10.438,15.711 -6.386,0 -12.254,-4.383 -18.105,-11.691 V 31.1211 h -13.184 v 95.1679" /><path
         id="path54"
         style="fill:#231f20;fill-opacity:1;fill-rule:nonzero;stroke:none"
         d="m 1048.54,98.1094 c -1.26,14.2696 -6.95,19.0116 -15.01,19.0116 -11.17,0 -15.91,-6.93 -15.91,-38.4218 0,-31.4804 4.74,-38.4492 15.91,-38.4492 8.42,0 13.17,4.4102 15.37,20.8789 h 12.82 c -2.19,-18.6601 -10.97,-31.8594 -28.19,-31.8594 -19.94,0 -29.09,15.0118 -29.09,49.4297 0,34.3908 9.15,49.4098 29.09,49.4098 17.22,0 25.25,-11.328 27.82,-29.9996 h -12.81" /><path
         id="path56"
         style="fill:#231f20;fill-opacity:1;fill-rule:nonzero;stroke:none"
         d="m 1120.65,87.4805 c -0.36,20.4995 -4.03,29.6405 -15.92,29.6405 -9.51,0 -15.74,-6.93 -15.94,-29.6405 z m -31.86,-10.9688 v -5.3125 c 0,-23.2383 5.33,-30.9492 17.76,-30.9492 10.07,0 14.28,9.3398 15.93,17.9688 l 12.45,-1.5 c -2,-14.25 -12.81,-27.4493 -30.2,-27.4493 -19.94,0 -29.1,15.0118 -29.1,49.4297 0,34.3908 9.16,49.4098 29.1,49.4098 20.12,0 29.1,-17.918 29.1,-45.3707 v -6.2266 h -45.04" /><path
         id="path58"
         style="fill:#231f20;fill-opacity:1;fill-rule:nonzero;stroke:none"
         d="m 1234.66,82.3594 c -12.06,-3.6602 -31.65,-12.4414 -31.65,-27.4297 0,-9 4.04,-14.6797 13.54,-14.6797 7.14,0 13.36,4.9492 18.11,9.8789 z m -42.25,17.9296 c 2.57,15.02 11.34,27.82 28.17,27.82 17.58,0 27.28,-10.23 27.28,-27.089 V 47.9609 c 0,-8.4218 0.9,-14.6523 2.38,-16.8398 h -13.73 l -1.64,8.0586 c -5.13,-5.1289 -14.29,-9.9102 -20.32,-9.9102 -14.83,0 -24.71,9.5313 -24.71,24.5196 0,23.4414 25.8,35.3515 44.82,39.5625 v 6.7574 c 0,10.43 -5.31,17.012 -13.73,17.012 -10.07,0 -15,-10.062 -16.45,-18.6522 l -12.07,1.8202" /><path
         id="path60"
         style="fill:#231f20;fill-opacity:1;fill-rule:nonzero;stroke:none"
         d="m 1275.48,126.289 h 12.44 v -10.437 c 6.24,6.398 15.39,12.257 21.63,12.257 13.16,0 20.85,-7.3 20.85,-24.871 V 31.1211 h -13.18 V 101.41 c 0,10.969 -3.3,15.711 -10.44,15.711 -6.4,0 -12.25,-4.383 -18.11,-11.691 V 31.1211 h -13.19 v 95.1679" /><path
         id="path62"
         style="fill:#231f20;fill-opacity:1;fill-rule:nonzero;stroke:none"
         d="m 1397.37,108.711 c -3.82,3.848 -8.41,8.41 -14.26,8.41 -11.17,0 -17.57,-9.141 -17.57,-38.4218 0,-29.289 6.96,-38.4492 17.95,-38.4492 4.02,0 9.87,3.6797 13.88,9.1602 z m 2.38,-68.461 h -0.34 c -4.6,-6.7617 -11.18,-10.9805 -19.61,-10.9805 -14.98,0 -27.44,12.8321 -27.44,49.4297 0,36.6098 12.46,49.4098 27.44,49.4098 7.16,0 13.19,-4.371 17.57,-8.781 v 43.934 h 13.19 V 56.7188 c 0,-12.4375 0.73,-20.1172 2.2,-25.5977 h -12.43 l -0.58,9.1289" /><path
         id="path64"
         style="fill:#231f20;fill-opacity:1;fill-rule:nonzero;stroke:none"
         d="m 1537.95,163.262 v -12.094 h -46.14 v -45.02 h 34.06 V 94.0703 h -34.06 V 43.2109 h 48.32 V 31.1211 h -62.57 V 163.262 h 60.39" /><path
         id="path66"
         style="fill:#231f20;fill-opacity:1;fill-rule:nonzero;stroke:none"
         d="m 1559.92,126.289 h 12.42 v -10.437 c 6.24,6.398 15.38,12.257 21.6,12.257 13.19,0 20.87,-7.3 20.87,-24.871 V 31.1211 h -13.16 V 101.41 c 0,10.969 -3.31,15.711 -10.44,15.711 -6.41,0 -12.27,-4.383 -18.12,-11.691 V 31.1211 h -13.17 v 95.1679" /><path
         id="path68"
         style="fill:#231f20;fill-opacity:1;fill-rule:nonzero;stroke:none"
         d="m 1667.5,70.2891 c 7.72,0 13.93,5.8593 13.93,23.9609 0,18.129 -6.21,23.98 -13.93,23.98 -7.67,0 -13.88,-5.851 -13.88,-23.98 0,-18.1016 6.21,-23.9609 13.88,-23.9609 z m -5.83,-34.0274 c -7.7,-3.3125 -12.83,-7.7031 -12.83,-13.0234 0,-7.8594 6.6,-13.34767 20.87,-13.34767 14.63,0 19.77,5.84767 19.77,13.53907 0,8.7812 -16.46,10.25 -27.81,12.832 z m 40.98,79.7773 c -1.45,0.352 -2.55,0.352 -3.84,0.352 -3.46,0 -5.86,-1.43 -8.22,-3.653 1.84,-5.859 2.92,-10.629 2.92,-18.3083 0,-23.7891 -10.99,-34.0391 -25.62,-34.0391 -2.94,0 -5.85,0.7383 -8.78,0.7383 -2.19,-0.5508 -6.6,-2.5586 -6.6,-6.1992 0,-6.7891 10.8,-7.168 23.07,-9.7305 13.72,-2.9101 26,-7.3086 26,-22.8789 C 1701.58,9.89063 1689.48,0 1669.35,0 c -21.59,0 -32.58,8.03125 -32.58,20.5 0,8.4102 5.31,15.3594 13.91,19.0391 -5.67,1.8203 -10.26,6.3906 -10.26,12.8125 0,7.1172 6.24,11.5195 12.46,12.6367 -7.5,5.3008 -11.34,17.3711 -11.34,27.25 0,22.7227 10.97,35.8707 27.63,35.8707 6.23,0 14.26,-2.738 17.39,-8.781 2.92,5.141 8.04,8.781 16.09,8.781 v -12.07" /><path
         id="path70"
         style="fill:#231f20;fill-opacity:1;fill-rule:nonzero;stroke:none"
         d="m 1722.98,126.289 h 13.17 V 31.1211 h -13.17 z m 0,36.973 h 13.17 v -15.371 h -13.17 v 15.371" /><path
         id="path72"
         style="fill:#231f20;fill-opacity:1;fill-rule:nonzero;stroke:none"
         d="m 1763.07,126.289 h 12.45 v -10.437 c 6.21,6.398 15.36,12.257 21.58,12.257 13.19,0 20.87,-7.3 20.87,-24.871 V 31.1211 h -13.18 V 101.41 c 0,10.969 -3.29,15.711 -10.43,15.711 -6.41,0 -12.27,-4.383 -18.12,-11.691 V 31.1211 h -13.17 v 95.1679" /><path
         id="path74"
         style="fill:#231f20;fill-opacity:1;fill-rule:nonzero;stroke:none"
         d="m 1882.57,87.4805 c -0.37,20.4995 -4.03,29.6405 -15.91,29.6405 -9.51,0 -15.76,-6.93 -15.93,-29.6405 z m -31.84,-10.9688 v -5.3125 c 0,-23.2383 5.31,-30.9492 17.75,-30.9492 10.06,0 14.27,9.3398 15.93,17.9688 l 12.44,-1.5 c -2.01,-14.25 -12.81,-27.4493 -30.19,-27.4493 -19.97,0 -29.11,15.0118 -29.11,49.4297 0,34.3908 9.14,49.4098 29.11,49.4098 20.12,0 29.08,-17.918 29.08,-45.3707 v -6.2266 h -45.01" /><path
         id="path76"
         style="fill:#231f20;fill-opacity:1;fill-rule:nonzero;stroke:none"
         d="m 1953.77,87.4805 c -0.39,20.4995 -4.03,29.6405 -15.92,29.6405 -9.51,0 -15.76,-6.93 -15.93,-29.6405 z m -31.85,-10.9688 v -5.3125 c 0,-23.2383 5.3,-30.9492 17.75,-30.9492 10.07,0 14.27,9.3398 15.94,17.9688 l 12.43,-1.5 c -2.01,-14.25 -12.8,-27.4493 -30.19,-27.4493 -19.96,0 -29.1,15.0118 -29.1,49.4297 0,34.3908 9.14,49.4098 29.1,49.4098 20.12,0 29.1,-17.918 29.1,-45.3707 v -6.2266 h -45.03" /><path
         id="path78"
         style="fill:#231f20;fill-opacity:1;fill-rule:nonzero;stroke:none"
         d="m 1985.61,126.289 h 13.18 V 114.75 h 0.37 c 7.89,11.539 13.72,13.359 24.17,13.359 V 115.66 c -9.9,0 -17.41,-3.281 -24.54,-16.8319 v -67.707 h -13.18 v 95.1679" /><path
         id="path80"
         style="fill:#231f20;fill-opacity:1;fill-rule:nonzero;stroke:none"
         d="m 2038.14,126.289 h 13.18 V 31.1211 h -13.18 z m 0,36.973 h 13.18 v -15.371 h -13.18 v 15.371" /><path
         id="path82"
         style="fill:#231f20;fill-opacity:1;fill-rule:nonzero;stroke:none"
         d="m 2078.22,126.289 h 12.45 v -10.437 c 6.22,6.398 15.36,12.257 21.61,12.257 13.15,0 20.86,-7.3 20.86,-24.871 V 31.1211 h -13.18 V 101.41 c 0,10.969 -3.29,15.711 -10.44,15.711 -6.39,0 -12.27,-4.383 -18.13,-11.691 V 31.1211 h -13.17 v 95.1679" /><path
         id="path84"
         style="fill:#231f20;fill-opacity:1;fill-rule:nonzero;stroke:none"
         d="m 2185.83,70.2891 c 7.69,0 13.92,5.8593 13.92,23.9609 0,18.129 -6.23,23.98 -13.92,23.98 -7.68,0 -13.89,-5.851 -13.89,-23.98 0,-18.1016 6.21,-23.9609 13.89,-23.9609 z m -5.85,-34.0274 c -7.69,-3.3125 -12.81,-7.7031 -12.81,-13.0234 0,-7.8594 6.6,-13.34767 20.86,-13.34767 14.65,0 19.79,5.84767 19.79,13.53907 0,8.7812 -16.49,10.25 -27.84,12.832 z m 41.01,79.7773 c -1.48,0.352 -2.57,0.352 -3.84,0.352 -3.48,0 -5.87,-1.43 -8.24,-3.653 1.84,-5.859 2.93,-10.629 2.93,-18.3083 0,-23.7891 -11,-34.0391 -25.63,-34.0391 -2.93,0 -5.84,0.7383 -8.79,0.7383 -2.19,-0.5508 -6.58,-2.5586 -6.58,-6.1992 0,-6.7891 10.79,-7.168 23.06,-9.7305 13.71,-2.9101 25.97,-7.3086 25.97,-22.8789 C 2219.87,9.89063 2207.82,0 2187.65,0 c -21.57,0 -32.55,8.03125 -32.55,20.5 0,8.4102 5.3,15.3594 13.9,19.0391 -5.67,1.8203 -10.25,6.3906 -10.25,12.8125 0,7.1172 6.24,11.5195 12.44,12.6367 -7.5,5.3008 -11.33,17.3711 -11.33,27.25 0,22.7227 10.98,35.8707 27.62,35.8707 6.26,0 14.29,-2.738 17.4,-8.781 2.94,5.141 8.04,8.781 16.11,8.781 v -12.07" /><path
         id="path86"
         style="fill:#ffffff;fill-opacity:1;fill-rule:nonzero;stroke:none"
         d="m 645.102,1115.25 c 0,260.7 212.086,472.8 472.818,472.8 260.71,0 472.82,-212.1 472.82,-472.8 0,-260.719 -212.11,-472.828 -472.82,-472.828 -260.732,0 -472.818,212.109 -472.818,472.828" /><path
         id="path88"
         style="fill:#231f20;fill-opacity:1;fill-rule:nonzero;stroke:none"
         d="m 1118.08,630.852 c -154.158,0 -291.588,72.902 -379.682,186.019 V 629.648 H 1510.46 V 833.98 C 1423.24,711.137 1279.87,630.852 1118.08,630.852" /><g
         id="g90"><g
           clip-path="url(#clipPath96)"
           id="g92"><path
             id="path104"
             style="fill:url(#radialGradient102);fill-opacity:1;fill-rule:nonzero;stroke:none"
             d="m 1129.23,1488.29 c -34.94,32.13 -73.47,61.76 -115.68,88.1 -161.245,-36.53 -291.48,-155.68 -343.667,-310.41 29.543,26.65 100.144,85.15 202.301,136.73 66.425,33.53 153.716,67.66 257.046,85.58" /></g></g><g
         id="g106"><g
           clip-path="url(#clipPath112)"
           id="g108"><path
             id="path120"
             style="fill:url(#radialGradient118);fill-opacity:1;fill-rule:nonzero;stroke:none"
             d="m 1403.79,1491.69 c -68.75,52.31 -152.19,86.24 -242.96,94.42 41.2,-26.34 78.49,-54.87 112.09,-85.04 41.9,0.19 85.61,-2.67 130.87,-9.38" /></g></g><g
         id="g122"><g
           clip-path="url(#clipPath128)"
           id="g124"><path
             id="path136"
             style="fill:url(#radialGradient134);fill-opacity:1;fill-rule:nonzero;stroke:none"
             d="m 1259.41,1500.85 c -35.24,30.88 -74.48,59.95 -117.9,86.63 -7.76,0.38 -15.59,0.57 -23.43,0.57 -31.42,0 -62.14,-3.09 -91.86,-8.97 40.46,-25.97 78.58,-55.81 113.97,-88.99 37.75,6.06 77.56,9.91 119.22,10.76" /></g></g><g
         id="g138"><g
           clip-path="url(#clipPath144)"
           id="g140"><path
             id="path152"
             style="fill:url(#radialGradient150);fill-opacity:1;fill-rule:nonzero;stroke:none"
             d="m 1386.8,1374.09 c 126.3,-177.19 155.27,-382.512 107.62,-544.711 60.47,79.445 96.45,178.531 96.45,285.871 0,90.7 -25.68,175.51 -70.15,247.54 -45.38,8.32 -90.17,11.77 -133.92,11.3" /></g></g><g
         id="g154"><g
           clip-path="url(#clipPath160)"
           id="g156"><path
             id="path168"
             style="fill:url(#radialGradient166);fill-opacity:1;fill-rule:nonzero;stroke:none"
             d="m 1269.31,1492.03 c -42.23,-0.4 -82.59,-3.94 -120.85,-9.76 35.78,-34.5 68.65,-72.49 98.21,-113.39 39.6,7.53 80.53,12.41 122.49,13.87 -28.54,38.09 -61.73,74.77 -99.85,109.28" /></g></g><g
         id="g170"><g
           clip-path="url(#clipPath176)"
           id="g172"><path
             id="path184"
             style="fill:url(#radialGradient182);fill-opacity:1;fill-rule:nonzero;stroke:none"
             d="m 1380.3,1383.03 c 43.72,0.84 88.47,-2.15 133.89,-9.91 -26.44,40.43 -58.84,76.61 -96,107.22 -46.87,7.8 -92.04,11.36 -135.33,11.65 37.14,-34.48 69.53,-71.07 97.44,-108.96" /></g></g><g
         id="g186"><g
           clip-path="url(#clipPath192)"
           id="g188"><path
             id="path200"
             style="fill:url(#radialGradient198);fill-opacity:1;fill-rule:nonzero;stroke:none"
             d="m 1242.95,1358.95 c -127.74,-25.2 -240.98,-77.74 -326.973,-128.03 -158.692,-92.86 -261.528,-198.26 -262.539,-199.3 l -0.942,0.9 C 691.738,811.109 885.57,642.422 1118.08,642.422 c 95.46,0 184.39,28.449 258.82,77.308 l -1.03,0.383 c 57.11,155.438 20.63,422.367 -132.92,638.837" /></g></g><g
         id="g202"><g
           clip-path="url(#clipPath208)"
           id="g204"><path
             id="path216"
             style="fill:url(#radialGradient214);fill-opacity:1;fill-rule:nonzero;stroke:none"
             d="m 1375.69,1373.94 c -42.17,-1.09 -83.38,-5.79 -123.2,-13.17 43.32,-61.46 79.19,-129.29 106.09,-201.71 57.55,-154.83 68.29,-315.189 29.34,-431.837 33.64,23.465 64.09,51.179 90.58,82.363 57.14,164.453 30.91,380.184 -102.81,564.354" /></g></g><g
         id="g218"><g
           clip-path="url(#clipPath224)"
           id="g220"><path
             id="path232"
             style="fill:url(#radialGradient230);fill-opacity:1;fill-rule:nonzero;stroke:none"
             d="m 1237.14,1366.96 c -29.11,40.03 -62.24,78.24 -99.61,113.59 -105.12,-17.38 -193.835,-51.86 -260.975,-85.73 -119.414,-60.26 -195.246,-129.96 -212.141,-146.23 -12.445,-42.31 -19.176,-87.07 -19.176,-133.34 0,-24.96 1.973,-49.45 5.7,-73.36 20.3,20.07 117.957,113.4 260.285,196.68 85.82,50.24 198.597,102.64 325.917,128.39" /></g></g><path
         id="path234"
         style="fill:#ffffff;fill-opacity:1;fill-rule:nonzero;stroke:none"
         d="m 1244.61,1499.52 c 0,-13.66 11.11,-24.77 24.76,-24.77 13.64,0 24.74,11.11 24.74,24.77 0,13.66 -11.1,24.76 -24.74,24.76 -13.65,0 -24.76,-11.1 -24.76,-24.76" /><path
         id="path236"
         style="fill:#ffffff;fill-opacity:1;fill-rule:nonzero;stroke:none"
         d="m 1204.59,1367.43 c 0,-17.48 14.22,-31.69 31.69,-31.69 17.49,0 31.71,14.21 31.71,31.69 0,17.48 -14.22,31.7 -31.71,31.7 -17.47,0 -31.69,-14.22 -31.69,-31.7" /><path
         id="path238"
         style="fill:#ffffff;fill-opacity:1;fill-rule:nonzero;stroke:none"
         d="m 1353.31,1376.64 c 0,-13.65 11.12,-24.76 24.75,-24.76 13.66,0 24.8,11.11 24.8,24.76 0,13.65 -11.14,24.77 -24.8,24.77 -13.63,0 -24.75,-11.12 -24.75,-24.77" /><path
         id="path240"
         style="fill:#ffffff;fill-opacity:1;fill-rule:nonzero;stroke:none"
         d="m 780.438,1163.95 c 0,-13.68 11.085,-24.81 24.738,-24.81 13.672,0 24.808,11.13 24.808,24.81 0,13.63 -11.136,24.73 -24.808,24.73 -13.653,0 -24.738,-11.1 -24.738,-24.73" /><path
         id="path242"
         style="fill:#231f20;fill-opacity:1;fill-rule:nonzero;stroke:none"
         d="m 1480.38,1392.07 c -14.21,-12.91 -4.64,13.29 -5.16,25.44 -0.55,12.13 -11.21,10.23 -11.4,4.93 -0.13,-3.55 -27.15,-42.19 -22.1,-60.73 8.28,-30.34 -66.64,-115.65 -96.59,-151.77 -78.72,-95.04 -148.52,-107.55 -194.63,-125.15 -2.37,19.85 -3.11,17.38 0.53,40.83 5.83,37.63 14.9,90.38 -21.78,103.2 -36.95,12.89 -75.53,-9.9 -76.58,-11.38 -21.79,-30.82 -7.23,-87.51 9.66,-111.03 4.05,-5.63 13.32,-14.94 22.04,-18.85 2.57,-6.49 5.15,-14.01 1.88,-24.72 -20.71,-6.2 -35.38,-9.91 -35.38,-9.91 -154.585,-11.68 -280.964,44.91 -280.964,44.91 0,0 -15.957,9.33 -34.476,11.32 -1.582,0.15 -16.403,6.62 -19.547,9.54 -12.52,11.69 -15.164,-4.97 2.773,-16.46 9.254,-5.91 1,-10.54 -5.621,-9.58 -4.898,0.7 -9.566,1.58 -13.902,2.46 -5.024,1.02 -9.613,2.05 -13.695,2.83 -8.512,1.64 -4.043,2.24 -7.247,-0.41 -4.003,-3.28 14.907,-21.55 44.77,-33.16 18.047,-7.02 49.793,2.45 49.793,2.45 0,0 114.984,-95.123 246.716,-109.764 8.86,-0.992 32.33,-103.074 32.33,-103.074 -4.44,-141.449 -17.3,-216.953 -17.3,-216.953 l 221.8,-49.09 c 0,0 -116.73,215.27 14.36,418.731 178.49,188.81 172.26,265.68 208.11,324.25 42.68,69.78 44.23,117.98 1.61,61.14" /><path
         id="path244"
         style="fill:#ffffff;fill-opacity:1;fill-rule:nonzero;stroke:none"
         d="m 1483.91,1025.2 c 0,-13.66 11.09,-24.77 24.76,-24.77 13.66,0 24.75,11.11 24.75,24.77 0,13.65 -11.09,24.76 -24.75,24.76 -13.67,0 -24.76,-11.11 -24.76,-24.76" /><path
         id="path246"
         style="fill:#f1491c;fill-opacity:1;fill-rule:nonzero;stroke:none"
         d="m 1249.09,1499.52 c 0,11.18 9.09,20.3 20.28,20.3 11.19,0 20.29,-9.12 20.29,-20.3 0,-11.18 -9.1,-20.29 -20.29,-20.29 -11.19,0 -20.28,9.11 -20.28,20.29" /><path
         id="path248"
         style="fill:#f1491c;fill-opacity:1;fill-rule:nonzero;stroke:none"
         d="m 1209.07,1367.43 c 0,15.02 12.2,27.22 27.21,27.22 15.01,0 27.24,-12.2 27.24,-27.22 0,-15 -12.23,-27.23 -27.24,-27.23 -15.01,0 -27.21,12.23 -27.21,27.23" /><path
         id="path250"
         style="fill:#f1491c;fill-opacity:1;fill-rule:nonzero;stroke:none"
         d="m 1357.78,1376.64 c 0,11.19 9.12,20.29 20.28,20.29 11.2,0 20.32,-9.1 20.32,-20.29 0,-11.19 -9.12,-20.29 -20.32,-20.29 -11.16,0 -20.28,9.1 -20.28,20.29" /><path
         id="path252"
         style="fill:#f1491c;fill-opacity:1;fill-rule:nonzero;stroke:none"
         d="m 784.91,1163.95 c 0,11.17 9.094,20.26 20.266,20.26 11.215,0 20.32,-9.09 20.32,-20.26 0,-11.2 -9.105,-20.32 -20.32,-20.32 -11.172,0 -20.266,9.12 -20.266,20.32" /><path
         id="path254"
         style="fill:#f1491c;fill-opacity:1;fill-rule:nonzero;stroke:none"
         d="m 1488.38,1025.2 c 0,11.18 9.1,20.28 20.29,20.28 11.19,0 20.31,-9.1 20.31,-20.28 0,-11.2 -9.12,-20.3 -20.31,-20.3 -11.19,0 -20.29,9.1 -20.29,20.3" /><path
         id="path256"
         style="fill:#99def9;fill-opacity:1;fill-rule:nonzero;stroke:none"
         d="m 1405.42,1567.57 c -78.74,54.74 -172.5,84.57 -269.47,84.57 -211.501,0 -390.962,-139.63 -451.184,-331.55 -9.653,-30.75 2.289,-0.35 2.289,-0.35 l 0.117,0.34 c 75.461,178.37 249.371,293.64 443.068,293.64 95.37,0 188.82,-28.76 267.6,-81.51 -0.06,0.96 -0.18,1.88 -0.18,2.83 0,11.53 2.86,22.4 7.76,32.03" /><path
         id="path258"
         style="fill:#231f20;fill-opacity:1;fill-rule:nonzero;stroke:none"
         d="m 1441,1600.71 c -87.59,66.27 -201.33,102.43 -322.72,102.43 -280.35,0 -507.62,-213.53 -507.62,-476.91 0,0 47.539,431.06 501.54,431.06 109.59,0 211,-32.68 293.97,-88.18 7.64,14.1 19.95,25.31 34.83,31.6" /><path
         id="path260"
         style="fill:#176fc1;fill-opacity:1;fill-rule:nonzero;stroke:none"
         d="m 1433.88,1228.91 c 3.71,8.42 15.35,39.5 15.35,39.5 0,0 -61.03,-106.68 -223.64,-261.22 0,0 -1.93,-22.174 -10.75,-40.319 -24.19,-49.707 -26.36,-186.484 0.06,-247.355 2.81,-6.453 -16.85,122.824 29.9,237.48 15.8,38.832 146.86,176.214 189.08,271.914" /><path
         id="path262"
         style="fill:#176fc1;fill-opacity:1;fill-rule:nonzero;stroke:none"
         d="m 1010.59,974.859 c 0,0 -103.945,11.735 -143.36,33.241 -39.414,21.51 43.915,-43.858 159.01,-61.291 -7.54,16.398 -15.65,28.05 -15.65,28.05" /><path
         id="path264"
         style="fill:#176fc1;fill-opacity:1;fill-rule:nonzero;stroke:none"
         d="m 1151.67,1091.33 c 4.36,-3.63 5.59,-0.92 17.79,-0.25 -11.45,-3.68 -10.78,-5.48 -47.37,-15.95 13.63,13.51 29.96,41.37 28.5,49.21 -0.37,-15.36 -4.73,-28.19 1.08,-33.01" /><path
         id="path266"
         style="fill:#176fc1;fill-opacity:1;fill-rule:nonzero;stroke:none"
         d="m 1409.2,1536.7 c 0,32.44 26.43,58.82 58.9,58.82 32.43,0 58.84,-26.38 58.84,-58.82 0,-32.48 -26.41,-58.88 -58.84,-58.88 -32.47,0 -58.9,26.4 -58.9,58.88" /></g></g></svg>