<?xml version="1.0" encoding="UTF-8"?>
<svg version="1.1" xmlns="http://www.w3.org/2000/svg" width="1867" height="239">
<path d="M0 0 C19.573125 -0.061875 39.14625 -0.12375 59.3125 -0.1875 C65.45657471 -0.21481201 71.60064941 -0.24212402 77.9309082 -0.27026367 C85.52575684 -0.28381348 85.52575684 -0.28381348 89.0990448 -0.28633118 C91.5557265 -0.29089019 94.01240217 -0.30134027 96.46903992 -0.31672668 C123.73026921 -0.47869781 151.76977502 0.70845311 172.7109375 20.5859375 C183.79788969 32.27832053 187.89465148 46.03708996 188.03515625 61.9921875 C187.60956904 77.26012861 183.00585395 90.37257119 173 102 C165.74124784 108.28930279 157.79390038 112.30907838 149 116 C150.0725 116.391875 151.145 116.78375 152.25 117.1875 C153.8336636 117.79080042 155.41695548 118.39507698 157 119 C157.92941406 119.3403125 158.85882812 119.680625 159.81640625 120.03125 C171.24378669 124.44129512 180.27530396 130.64581048 187 141 C187.39832031 141.60070312 187.79664063 142.20140625 188.20703125 142.8203125 C196.30098668 156.82558369 195.29343658 175.64338002 191.63378906 190.81103516 C186.97050237 206.91697832 176.45744631 218.93669606 161.9296875 227.00683594 C114.98735058 251.16693546 42.50742946 239 0 239 C0 160.13 0 81.26 0 0 Z M64 46 C64 61.84 64 77.68 64 94 C91.14166164 95.45311508 91.14166164 95.45311508 116 86 C121.7430419 79.99857994 123.31238582 75.00427247 123.21484375 66.7890625 C122.81711003 61.62575564 121.10703109 58.36006677 117.8125 54.3125 C106.59824929 45.09189386 92.58647836 45.70806406 78.75 45.875 C73.8825 45.91625 69.015 45.9575 64 46 Z M64 138 C64 156.15 64 174.3 64 193 C68.49625 193.04125 72.9925 193.0825 77.625 193.125 C79.01154785 193.14320801 80.3980957 193.16141602 81.82666016 193.18017578 C95.64286248 193.24057661 112.95514884 192.9925605 123.5625 182.7421875 C128.69915894 176.51678019 129.66597372 170.0883703 129.37890625 162.15234375 C128.62071173 155.84447797 126.49952954 151.08244296 121.875 146.6875 C109.68705452 137.34599614 93.86001514 137.70462521 79.25 137.875 C74.2175 137.91625 69.185 137.9575 64 138 Z " fill="#005DAA" transform="translate(913,0)"/>
<path d="M0 0 C1.1226828 -0.00014603 2.2453656 -0.00029205 3.40206909 -0.0004425 C7.09757446 0.00025185 10.79302887 0.00802192 14.48852539 0.01586914 C17.05684888 0.01773501 19.62517273 0.01915812 22.1934967 0.02015686 C28.25294517 0.02357949 34.31237274 0.03145385 40.37181336 0.04150635 C47.9517295 0.05380673 55.53164863 0.05926003 63.11157227 0.06469727 C76.62395619 0.07442006 90.1363005 0.09445507 103.64868164 0.11352539 C103.64868164 17.27352539 103.64868164 34.43352539 103.64868164 52.11352539 C94.10833008 52.15219727 94.10833008 52.15219727 84.37524414 52.19165039 C80.31010149 52.21686081 76.24503017 52.24322599 72.17993164 52.27368164 C65.74861524 52.32175714 59.31746428 52.36589811 52.88598633 52.38452148 C47.69212452 52.39983133 42.49869997 52.43452536 37.30503464 52.48183441 C35.3382793 52.49650213 33.37146149 52.50455785 31.40465164 52.50540924 C16.10483802 52.51867455 -0.10196542 53.28432569 -13.85131836 60.80102539 C-14.5002002 61.14061279 -15.14908203 61.4802002 -15.81762695 61.83007812 C-21.78008987 65.08711612 -26.66800908 69.19694783 -31.35131836 74.11352539 C-31.92108398 74.67555664 -32.49084961 75.23758789 -33.07788086 75.81665039 C-44.02993775 87.38651562 -48.01908767 104.49887527 -47.75146484 120.03149414 C-47.0412801 137.18670894 -39.18316081 152.65622932 -26.89038086 164.48071289 C-12.63487206 176.8968012 2.93466537 181.67422125 21.64868164 181.48852539 C22.84879883 181.50012695 24.04891602 181.51172852 25.28540039 181.52368164 C26.4365332 181.51981445 27.58766602 181.51594727 28.77368164 181.51196289 C29.80750977 181.5085791 30.84133789 181.50519531 31.90649414 181.50170898 C35.19555245 181.03611045 36.35106446 180.51204304 38.64868164 178.11352539 C39.06029011 175.47886569 39.2130491 173.25103457 39.19458008 170.61279297 C39.21008659 169.47096809 39.21008659 169.47096809 39.22590637 168.30607605 C39.25540558 165.78985547 39.25683499 163.27443677 39.25805664 160.75805664 C39.27303356 159.01354939 39.28975967 157.26905634 39.3081665 155.52458191 C39.35190743 150.93294637 39.37185394 146.34150211 39.38690186 141.74969482 C39.40988538 136.24043606 39.46232263 130.73138894 39.50984192 125.22229767 C39.5787279 116.85265153 39.61011869 108.48361371 39.64868164 100.11352539 C61.42868164 100.11352539 83.20868164 100.11352539 105.64868164 100.11352539 C105.64868164 145.65352539 105.64868164 191.19352539 105.64868164 238.11352539 C88.09680664 238.17540039 70.54493164 238.23727539 52.46118164 238.30102539 C44.21210815 238.34199341 44.21210815 238.34199341 35.79638672 238.38378906 C28.97229004 238.39733887 28.97229004 238.39733887 25.75663757 238.39985657 C23.55670845 238.40440069 21.3567858 238.41481798 19.15690613 238.43025208 C-18.95869648 238.68381077 -52.16933137 231.11338205 -80.35131836 204.11352539 C-81.09897461 203.4290332 -81.84663086 202.74454102 -82.61694336 202.03930664 C-98.12645985 187.37034087 -107.55681492 168.40133669 -113.35131836 148.11352539 C-113.69291992 146.97270508 -114.03452148 145.83188477 -114.38647461 144.65649414 C-121.69714349 115.44782173 -115.61568299 82.61943686 -100.35131836 56.98852539 C-96.69145807 51.40242284 -92.68694835 46.18837199 -88.35131836 41.11352539 C-87.69905273 40.3155957 -87.04678711 39.51766602 -86.37475586 38.69555664 C-64.97084372 13.48383241 -32.76834766 -0.11218324 0 0 Z " fill="#005DAA" transform="translate(116.351318359375,0.886474609375)"/>
<path d="M0 0 C2.53732694 0.00373564 5.07465534 0.00658001 7.61198425 0.00857544 C13.57563384 0.01539513 19.53921666 0.03110926 25.50283211 0.05127442 C34.16642085 0.07992315 42.83003568 0.09025731 51.49365997 0.10289001 C63.59349134 0.12220658 75.69312757 0.16055949 87.79296875 0.1953125 C87.79296875 17.3553125 87.79296875 34.5153125 87.79296875 52.1953125 C78.30869141 52.25138672 78.30869141 52.25138672 68.6328125 52.30859375 C64.59958341 52.33891074 60.56639647 52.37008298 56.53320312 52.40429688 C50.14772814 52.45838513 43.76233651 52.509503 37.37670898 52.54174805 C32.22182148 52.56797796 27.06721795 52.60851577 21.91250801 52.65849876 C19.95722581 52.67503552 18.00189465 52.68663112 16.04655266 52.69292641 C-5.80113045 52.77030357 -25.9121445 55.65384056 -43.20703125 70.1953125 C-43.85027344 70.71480469 -44.49351562 71.23429687 -45.15625 71.76953125 C-57.21365692 82.52636394 -62.20989646 99.64122204 -63.4453125 115.1953125 C-63.84588923 131.38704565 -58.44410763 146.36816743 -47.76953125 158.5703125 C-36.1690497 170.68027466 -22.47776819 180.45122288 -5.11669922 181.35644531 C-1.438382 181.40164252 2.23939821 181.43049449 5.91796875 181.4453125 C7.20574219 181.4659375 8.49351562 181.4865625 9.8203125 181.5078125 C11.66689453 181.51554687 11.66689453 181.51554687 13.55078125 181.5234375 C15.23905029 181.53745605 15.23905029 181.53745605 16.96142578 181.55175781 C19.71577984 181.41053422 19.71577984 181.41053422 21.44291687 180.14183044 C23.49357265 177.18517497 23.23227977 174.16853073 23.2253418 170.69458008 C23.23553345 169.93336349 23.2457251 169.17214691 23.25622559 168.38786316 C23.28641982 165.87178245 23.29563111 163.35608203 23.3046875 160.83984375 C23.32152946 159.09533924 23.33967905 157.35084689 23.35908508 155.60636902 C23.4066438 151.01477868 23.43641508 146.42323767 23.46252441 141.83148193 C23.49753551 136.32223538 23.55456486 130.81317837 23.60791779 125.30408478 C23.68650056 116.93451775 23.73705381 108.5652 23.79296875 100.1953125 C45.57296875 100.1953125 67.35296875 100.1953125 89.79296875 100.1953125 C89.79296875 145.7353125 89.79296875 191.2753125 89.79296875 238.1953125 C72.24109375 238.2571875 54.68921875 238.3190625 36.60546875 238.3828125 C28.35639526 238.42378052 28.35639526 238.42378052 19.94067383 238.46557617 C13.11657715 238.47912598 13.11657715 238.47912598 9.90092468 238.48164368 C7.70099556 238.4861878 5.50107291 238.49660508 3.30119324 238.51203918 C-14.96479738 238.63355112 -33.70082175 238.3073369 -51.08203125 232.0078125 C-51.94368896 231.70665527 -52.80534668 231.40549805 -53.69311523 231.09521484 C-83.53303468 220.29727355 -107.83591272 197.31066064 -121.51953125 168.8203125 C-134.66438503 140.34900789 -136.27936712 107.49230812 -125.71484375 77.91796875 C-119.55009243 62.23914587 -110.88675083 48.36331467 -99.20703125 36.1953125 C-98.43617188 35.36128906 -97.6653125 34.52726562 -96.87109375 33.66796875 C-70.62287877 6.10309574 -36.43126099 -0.1581305 0 0 Z " fill="#005DAA" transform="translate(508.20703125,0.8046875)"/>
<path d="M0 0 C0.73511307 0.00359528 1.47022614 0.00719055 2.22761536 0.01089478 C2.99829346 0.01074875 3.76897156 0.01060272 4.56300354 0.01045227 C7.12237823 0.01115157 9.68168104 0.01894471 12.24104309 0.02676392 C14.01081299 0.02862804 15.7805834 0.03005197 17.550354 0.03105164 C22.2176505 0.03487728 26.88491607 0.04470796 31.55220032 0.05575562 C36.31110719 0.06596873 41.07001905 0.07054904 45.82893372 0.07559204 C55.17334837 0.08633019 64.51774004 0.10340717 73.86213684 0.12442017 C84.54525978 27.78476486 95.22383638 55.44679885 105.86213684 83.12442017 C113.30531268 102.48914821 120.76879581 121.84596324 128.24253845 141.19891357 C135.93143681 161.10981555 143.60066956 181.02821933 151.25471497 200.95254517 C151.83776901 202.46958542 151.83776901 202.46958542 152.43260193 204.01727295 C153.18383147 205.97234487 153.93448117 207.92763971 154.68449402 209.88317871 C156.42834025 214.4242385 158.18672874 218.95851059 159.97981262 223.4803772 C160.30953568 224.31521133 160.63925873 225.15004547 160.97897339 226.01017761 C161.59324483 227.56233557 162.21165505 229.11286471 162.83502197 230.66139221 C164.01037407 233.63549962 164.86213684 235.89512186 164.86213684 239.12442017 C141.76213684 239.12442017 118.66213684 239.12442017 94.86213684 239.12442017 C91.92025386 232.06390101 89.0416935 225.12837016 86.53010559 217.92910767 C86.24863174 217.12957672 85.9671579 216.33004578 85.67715454 215.50628662 C85.09331501 213.84508961 84.51117709 212.18329358 83.93074036 210.52090454 C83.03854567 207.96768017 82.13915214 205.41706787 81.23908997 202.86660767 C80.66900409 201.24175651 80.09932703 199.61676185 79.53010559 197.99160767 C79.26143173 197.23024506 78.99275787 196.46888245 78.71594238 195.68444824 C76.86213684 190.35470473 76.86213684 190.35470473 76.86213684 188.12442017 C47.82213684 188.45442017 18.78213684 188.78442017 -11.13786316 189.12442017 C-16.64502721 204.08198731 -16.64502721 204.08198731 -22.1471405 219.04141235 C-22.83917772 220.91810739 -23.53138614 222.7947393 -24.22380066 224.67129517 C-24.58062927 225.64405396 -24.93745789 226.61681274 -25.30509949 227.61904907 C-25.65000427 228.55249146 -25.99490906 229.48593384 -26.3502655 230.44766235 C-26.64782745 231.25596497 -26.9453894 232.06426758 -27.25196838 232.89706421 C-28.09750008 235.02293753 -29.11470518 237.07810422 -30.13786316 239.12442017 C-51.58786316 239.12442017 -73.03786316 239.12442017 -95.13786316 239.12442017 C-92.88807544 229.00037542 -92.88807544 229.00037542 -91.60758972 225.70864868 C-91.31747009 224.95316742 -91.02735046 224.19768616 -90.72843933 223.41931152 C-90.41495544 222.62203644 -90.10147156 221.82476135 -89.77848816 221.00332642 C-89.44212341 220.13193024 -89.10575867 219.26053406 -88.75920105 218.36273193 C-88.02705304 216.46788627 -87.292045 214.57414373 -86.55448914 212.68139648 C-84.9360174 208.52712993 -83.3321727 204.36726171 -81.72740173 200.20768738 C-80.86678931 197.97715135 -80.00548744 195.74688122 -79.14353943 193.51686096 C-74.16791287 180.636859 -69.27776411 167.72465269 -64.38786316 154.81192017 C-63.45947735 152.36210106 -62.53101002 149.91231285 -61.60246277 147.46255493 C-59.72312459 142.5041102 -57.84416227 137.54552332 -55.96549988 132.58682251 C-51.75733934 121.4801334 -47.54531137 110.37491112 -43.33305359 99.26977539 C-42.41463126 96.84842672 -41.49625527 94.42706048 -40.57792664 92.00567627 C-35.63728375 78.97854738 -30.69388908 65.95247254 -25.74333191 52.92910767 C-25.0925341 51.21700104 -25.0925341 51.21700104 -24.42858887 49.4703064 C-22.38672004 44.09892458 -20.3443557 38.72773192 -18.30119324 33.35684204 C-17.5696546 31.43301846 -16.83812752 29.50919048 -16.10661316 27.58535767 C-15.76252914 26.6812616 -15.41844513 25.77716553 -15.06393433 24.84567261 C-13.46598805 20.6421115 -11.87771566 16.43544082 -10.31364441 12.21914673 C-10.03395813 11.46638458 -9.75427185 10.71362244 -9.46611023 9.93804932 C-8.95017865 8.5465394 -8.43659503 7.15415573 -7.92582703 5.76074219 C-5.96881034 0.4815105 -5.69413731 0.01175141 0 0 Z M32.86213684 52.12442017 C20.43836454 89.21263459 20.43836454 89.21263459 8.23713684 126.37442017 C8.00594147 127.0833844 7.77474609 127.79234863 7.5365448 128.52279663 C6.8997099 130.4775136 6.26749165 132.43373291 5.63557434 134.39004517 C5.28929993 135.46028931 4.94302551 136.53053345 4.58625793 137.63320923 C3.76909746 140.01211951 3.76909746 140.01211951 3.86213684 142.12442017 C23.00213684 142.12442017 42.14213684 142.12442017 61.86213684 142.12442017 C51.76606065 108.04376949 51.76606065 108.04376949 41.46134949 74.02572632 C40.89520927 72.1748606 40.33175186 70.32317214 39.77098083 68.47067261 C38.99113576 65.89716353 38.20151629 63.32686683 37.40901184 60.75723267 C37.17939255 59.9928186 36.94977325 59.22840454 36.7131958 58.44082642 C36.15452383 56.64944069 35.516017 54.88328853 34.86213684 53.12442017 C34.20213684 52.79442017 33.54213684 52.46442017 32.86213684 52.12442017 Z " fill="#005DAA" transform="translate(718.1378631591797,-0.124420166015625)"/>
<path d="M0 0 C55.44 0 110.88 0 168 0 C168 15.18 168 30.36 168 46 C133.68 46 99.36 46 64 46 C64 61.84 64 77.68 64 94 C96.34 94 128.68 94 162 94 C162 109.18 162 124.36 162 140 C129.66 140 97.32 140 64 140 C64 157.49 64 174.98 64 193 C99.64 193 135.28 193 172 193 C172 208.18 172 223.36 172 239 C115.24 239 58.48 239 0 239 C0 160.13 0 81.26 0 0 Z " fill="#005DAA" transform="translate(1579,0)"/>
<path d="M0 0 C24.42 0 48.84 0 74 0 C77.155625 6.455625 80.31125 12.91125 83.5625 19.5625 C85.8682013 24.2773932 85.8682013 24.2773932 88.17401123 28.99223328 C92.42703326 37.68855871 96.67737636 46.3861759 100.92164612 55.08677673 C103.03906735 59.4268034 105.15807307 63.76605537 107.27731323 68.10519409 C108.30174849 70.20373359 109.32544921 72.30263182 110.34841919 74.40188599 C111.77859397 77.33654583 113.21127353 80.2699699 114.64453125 83.203125 C115.07268127 84.08328781 115.5008313 84.96345062 115.94195557 85.87028503 C116.33211853 86.6675148 116.72228149 87.46474457 117.12426758 88.28613281 C117.46428299 88.98313293 117.8042984 89.68013306 118.15461731 90.39825439 C118.89657183 91.99500461 118.89657183 91.99500461 120 93 C120.24943359 92.47607666 120.49886719 91.95215332 120.75585938 91.41235352 C127.12872166 78.03592152 133.56467902 64.69125989 140.03781128 51.36315918 C144.82581944 41.50369527 149.59016355 31.63375803 154.28710938 21.73046875 C157.75909226 14.43186882 161.38264426 7.23471148 165 0 C189.42 0 213.84 0 239 0 C237.49051538 3.77371155 235.99678908 6.92485135 233.98046875 10.40234375 C233.07578857 11.96722534 233.07578857 11.96722534 232.15283203 13.5637207 C231.50427246 14.67706787 230.85571289 15.79041504 230.1875 16.9375 C229.50616681 18.11211842 228.82501701 19.28684325 228.14404297 20.46166992 C222.95968129 29.39505158 217.71285056 38.29124825 212.4453125 47.17578125 C208.43984074 53.93663185 204.47065674 60.71867594 200.5 67.5 C193.8800573 78.80335454 187.23279688 90.09022432 180.56054688 101.36279297 C178.48445265 104.8712363 176.41059127 108.38099683 174.33691406 111.89086914 C173.73073242 112.91688232 173.12455078 113.94289551 172.5 115 C172.03418015 115.82070984 171.56836029 116.64141968 171.08842468 117.48699951 C168.49389734 122.00024778 165.91187376 126.24116266 162.56762695 130.23876953 C148.55800857 148.09599619 151.29109319 170.19011765 151.64379883 191.69476318 C151.73021235 197.98327781 151.71797923 204.27233527 151.72293854 210.56134033 C151.74113249 220.04336788 151.8818898 229.51633151 152 239 C130.55 239 109.1 239 87 239 C87.10183594 232.73257813 87.20367188 226.46515625 87.30859375 220.0078125 C87.33972349 215.97884363 87.36629816 211.95082449 87.37695312 207.921875 C87.39419633 201.56010731 87.42606548 195.2013635 87.55883789 188.84082031 C88.05365337 164.12850916 88.34515694 144.69115846 72.83544922 124.43585205 C70.29427956 121.06342787 68.2202455 117.48873564 66.12890625 113.828125 C65.43600515 112.67429256 64.73965081 111.52252553 64.03955078 110.37304688 C61.85113383 106.75380237 59.68592103 103.12145926 57.52734375 99.484375 C56.96985695 98.54539619 56.96985695 98.54539619 56.40110779 97.58744812 C55.24625333 95.64182091 54.09185902 93.69592119 52.9375 91.75 C52.10703534 90.35065523 51.27654991 88.95132279 50.44604492 87.55200195 C45.23181472 78.76564199 40.02125274 69.97710805 34.8125 61.1875 C33.84618652 59.55711792 33.84618652 59.55711792 32.86035156 57.89379883 C29.86596646 52.84068007 26.8731451 47.78665214 23.88551331 42.72953796 C22.49529391 40.3765838 21.10424864 38.02411863 19.71298218 35.67178345 C18.70241941 33.96273153 17.6926345 32.25321973 16.68286133 30.54370117 C13.68041987 25.47255239 10.65765342 20.41812757 7.55078125 15.41015625 C7.03104736 14.57170166 6.51131348 13.73324707 5.97583008 12.86938477 C5.02233399 11.33858583 4.06293269 9.81144223 3.09643555 8.28881836 C0 3.32643491 0 3.32643491 0 0 Z " fill="#005DAA" transform="translate(1104,0)"/>
<path d="M0 0 C59.73 0 119.46 0 181 0 C181 15.84 181 31.68 181 48 C161.86 48 142.72 48 123 48 C123 111.03 123 174.06 123 239 C101.88 239 80.76 239 59 239 C59 175.97 59 112.94 59 48 C39.53 48 20.06 48 0 48 C0 32.16 0 16.32 0 0 Z " fill="#005DAA" transform="translate(1368,0)"/>
<path d="M0 0 C21.12 0 42.24 0 64 0 C64 78.21 64 156.42 64 237 C42.88 237 21.76 237 0 237 C0 158.79 0 80.58 0 0 Z " fill="#005DAA" transform="translate(276,0)"/>
<path d="M0 0 C3.96 0 7.92 0 12 0 C12.35827881 0.96413818 12.71655762 1.92827637 13.08569336 2.92163086 C14.41170863 6.4877671 15.74131196 10.05255642 17.07202148 13.61694336 C17.64820245 15.1618235 18.22340076 16.7070705 18.79760742 18.25268555 C19.62162267 20.47020372 20.44912643 22.68639215 21.27734375 24.90234375 C21.53466782 25.5971434 21.79199188 26.29194305 22.05711365 27.00779724 C23.10540813 30.25219275 23.10540813 30.25219275 25 33 C25.35827881 32.03586182 25.71655762 31.07172363 26.08569336 30.07836914 C27.41170863 26.5122329 28.74131196 22.94744358 30.07202148 19.38305664 C30.64820245 17.8381765 31.22340076 16.2929295 31.79760742 14.74731445 C32.62162267 12.52979628 33.44912643 10.31360785 34.27734375 8.09765625 C34.53466782 7.4028566 34.79199188 6.70805695 35.05711365 5.99220276 C36.88612829 1.11387171 36.88612829 1.11387171 38 0 C41.63 0 45.26 0 49 0 C49 14.85 49 29.7 49 45 C46.69 45 44.38 45 42 45 C41.67 34.44 41.34 23.88 41 13 C40.14535156 15.22621094 39.29070312 17.45242187 38.41015625 19.74609375 C37.58340351 21.89420879 36.75573634 24.04196936 35.92797852 26.18969727 C35.35182422 27.68607317 34.7766259 29.18281751 34.20239258 30.67993164 C33.37830805 32.82795524 32.55082926 34.97464372 31.72265625 37.12109375 C31.46533218 37.79401962 31.20800812 38.4669455 30.94288635 39.16026306 C29.11387171 43.88612829 29.11387171 43.88612829 28 45 C25.66702567 45.04092937 23.33294775 45.04241723 21 45 C16.31936788 34.13103213 12.1857477 23.06740069 8 12 C7.67 22.89 7.34 33.78 7 45 C4.69 45 2.38 45 0 45 C0 30.15 0 15.3 0 0 Z " fill="#005DAA" transform="translate(1818,1)"/>
<path d="M0 0 C11.55 0 23.1 0 35 0 C35 1.98 35 3.96 35 6 C30.71 6 26.42 6 22 6 C22 18.87 22 31.74 22 45 C19.36 45 16.72 45 14 45 C14 32.13 14 19.26 14 6 C9.38 6 4.76 6 0 6 C0 4.02 0 2.04 0 0 Z " fill="#005DAA" transform="translate(1777,1)"/>
</svg>
