<?xml version="1.0" encoding="UTF-8"?>
<svg version="1.1" xmlns="http://www.w3.org/2000/svg" width="600" height="165">
<path d="M0 0 C198 0 396 0 600 0 C600 54.45 600 108.9 600 165 C402 165 204 165 0 165 C0 110.55 0 56.1 0 0 Z " fill="#FFFFFF" transform="translate(0,0)"/>
<path d="M0 0 C22.77 -0.061875 45.54 -0.12375 69 -0.1875 C76.18394531 -0.21481201 83.36789063 -0.24212402 90.76953125 -0.27026367 C99.55664062 -0.28381348 99.55664062 -0.28381348 103.6730957 -0.28633118 C106.54198192 -0.28912088 109.41070082 -0.30034224 112.27954102 -0.31672668 C115.94475681 -0.33738046 119.60973103 -0.34345943 123.27499962 -0.33921683 C125.24698941 -0.34051997 127.21895281 -0.35657096 129.19087219 -0.37328625 C138.20114255 -0.34168141 144.94528121 0.45369836 151.7253418 6.92773438 C152.57099701 7.72719482 153.41665222 8.52665527 154.28793335 9.3503418 C155.18291534 10.224729 156.07789734 11.09911621 157 12 C157.96174914 12.92958244 158.92363638 13.85902201 159.88565063 14.78833008 C163.07801306 17.88815088 166.23844573 21.01955727 169.39453125 24.15625 C169.96384558 24.7214888 170.5331599 25.2867276 171.11972618 25.86909485 C174.12398447 28.85269175 177.12509869 31.83941106 180.1237793 34.82861328 C183.1994442 37.89315886 186.28663148 40.94582527 189.37643909 43.99610138 C191.7741807 46.36760533 194.16290493 48.74804151 196.54935265 51.13090515 C197.68336475 52.26008254 198.82071978 53.38591402 199.96161842 54.50813293 C208.34943514 62.76690034 215.09749046 69.97490464 216.3125 82.125 C215.63104871 90.57499601 212.8802904 96.44194348 207.05639648 102.61962891 C206.32987837 103.39440047 206.32987837 103.39440047 205.58868313 104.18482399 C204.06842013 105.79903363 202.53650452 107.40125265 201 109 C200.29136244 109.73924839 200.29136244 109.73924839 199.56840897 110.49343109 C192.94554524 117.38381434 186.2008682 124.15635215 179.46704102 130.93798828 C177.19085008 133.23206596 174.92351997 135.53439621 172.66333008 137.84423828 C169.89549619 140.67271817 167.11279471 143.48576312 164.31930351 146.28889847 C163.27171994 147.34494052 162.22919951 148.40603444 161.19233894 149.47260666 C159.73485924 150.96964272 158.25884718 152.44596883 156.77758789 153.91943359 C155.94916885 154.7581601 155.12074982 155.5968866 154.26722717 156.46102905 C145.32269538 164.01915694 136.30689004 165.87712606 124.87792969 165.68115234 C123.48475877 165.67930943 122.09158226 165.68012363 120.69841385 165.68334389 C117.00449665 165.68468533 113.31177192 165.65019504 109.61813354 165.60768127 C106.13812971 165.57322795 102.65839966 165.57188751 99.17822266 165.56762695 C89.03532697 165.53628163 78.89264793 165.45251381 68.75 165.375 C46.0625 165.25125 23.375 165.1275 0 165 C0 110.55 0 56.1 0 0 Z " fill="#FFFFFF" transform="translate(0,0)"/>
<path d="M0 0 C14.47875 -0.103125 28.9575 -0.20625 43.875 -0.3125 C48.43038574 -0.35802002 52.98577148 -0.40354004 57.67919922 -0.45043945 C63.28344727 -0.47302246 63.28344727 -0.47302246 65.91506958 -0.47721863 C67.73552579 -0.48484815 69.55595826 -0.50233263 71.37625122 -0.52787781 C91.10021972 -0.79060608 91.10021972 -0.79060608 99 5 C99 9.66375021 97.93943208 10.51835087 94.77030945 13.69404602 C94.14695206 14.29830917 93.52359467 14.90257233 92.88134766 15.52514648 C92.23107101 16.17118835 91.58079437 16.81723022 90.91081238 17.48284912 C89.49598153 18.88579685 88.07650416 20.28407044 86.65300369 21.67822075 C84.40023709 23.88463469 82.15970468 26.10283069 79.92196655 28.32447815 C75.16740224 33.04010706 70.39655995 37.73907979 65.625 42.4375 C60.10373449 47.87843752 54.58921173 53.32602559 49.08594894 58.78517342 C46.87760553 60.97032423 44.66004527 63.14581257 42.44180298 65.32090759 C41.08660519 66.66200994 39.73179698 68.00350611 38.37744141 69.34545898 C37.75813248 69.94769791 37.13882355 70.54993683 36.50074768 71.17042542 C32.62354335 75.03629138 30.06434033 78.10468537 29.9375 83.8125 C33.4865629 94.45968871 46.6314195 103.92763426 54.37890625 111.72900391 C56.13168101 113.49843133 57.87905984 115.27321967 59.62109375 117.05322266 C62.15201351 119.63885215 64.69894205 122.20769336 67.25 124.7734375 C68.40967285 125.96711441 68.40967285 125.96711441 69.59277344 127.18490601 C73.72879953 131.3049522 76.92815108 134.46574025 83 135 C88.9983393 133.03156673 92.58107205 129.9773962 96.94506836 125.5090332 C97.59957977 124.8551059 98.25409119 124.20117859 98.92843628 123.5274353 C101.07519861 121.37790103 103.20746774 119.21457967 105.33984375 117.05078125 C106.83111945 115.55204005 108.32328462 114.05418341 109.81629944 112.55717468 C113.73289132 108.62535104 117.63731897 104.68166186 121.53930664 100.73535156 C125.52736909 96.70628389 129.52685785 92.68859399 133.52539062 88.66992188 C141.36146413 80.79102079 149.18472974 72.89953297 157 65 C161.35509266 67.02034675 162.45108122 68.89989525 164.234375 73.30859375 C166.36157315 80.78634644 165.64421192 87.87951385 162.71536255 94.99909973 C158.84976831 101.76167175 152.8076736 106.97857474 147.29296875 112.3984375 C145.92430378 113.76351992 144.5567528 115.12972008 143.19026184 116.49697876 C140.33385569 119.34871141 137.46771725 122.19014172 134.59350586 125.02392578 C130.91978719 128.64660502 127.26619979 132.2887923 123.61905956 135.93820763 C120.79999198 138.7564575 117.97315845 141.56680673 115.14367104 144.37459183 C113.79397811 145.71477783 112.44605967 147.05675347 111.09999657 148.40058517 C109.21492928 150.27910884 107.3202849 152.14741017 105.42260742 154.01318359 C104.87431274 154.56283783 104.32601807 155.11249207 103.7611084 155.67880249 C96.35929799 162.90039922 89.73838623 165.15914725 79.46777344 165.11352539 C78.15864172 165.11370619 78.15864172 165.11370619 76.8230629 165.11389065 C74.00180755 165.11314508 71.18061851 165.105533 68.359375 165.09765625 C66.6160485 165.09618573 64.87272156 165.0951657 63.12939453 165.09460449 C56.66958962 165.08936436 50.20979415 165.07540315 43.75 165.0625 C29.3125 165.041875 14.875 165.02125 0 165 C0 110.55 0 56.1 0 0 Z " fill="#005DA8" transform="translate(0,0)"/>
<path d="M0 0 C9.21354571 5.43276843 16.91028672 14.85794954 24.49186707 22.39294434 C25.06118139 22.95818314 25.63049572 23.52342194 26.217062 24.10578918 C29.22132029 27.08938609 32.22243451 30.0761054 35.22111511 33.06530762 C38.29678001 36.1298532 41.38396729 39.18251961 44.47377491 42.23279572 C46.87151651 44.60429966 49.26024074 46.98473585 51.64668846 49.36759949 C52.78070056 50.49677688 53.91805559 51.62260835 55.05895424 52.74482727 C63.44677095 61.00359467 70.19482628 68.21159897 71.40983582 80.36169434 C70.72838452 88.81169035 67.97762622 94.67863781 62.1537323 100.85632324 C61.42721419 101.63109481 61.42721419 101.63109481 60.68601894 102.42151833 C59.16575595 104.03572797 57.63384034 105.63794698 56.09733582 107.23669434 C55.38869825 107.97594273 55.38869825 107.97594273 54.66574478 108.73012543 C48.04288106 115.62050868 41.29820401 122.39304649 34.56437683 129.17468262 C32.2881859 131.4687603 30.02085579 133.77109054 27.76066589 136.08093262 C24.992832 138.90941251 22.21013053 141.72245745 19.41663933 144.5255928 C18.36905576 145.58163485 17.32653533 146.64272877 16.28967476 147.70930099 C8.3094772 155.90608306 -0.05555013 163.06991271 -11.90266418 163.98669434 C-18.71448183 163.66232207 -24.13631945 160.67196354 -29.90266418 157.23669434 C-25.98297997 152.54242419 -21.9053889 148.10133244 -17.56184387 143.79821777 C-16.95945892 143.19729309 -16.35707397 142.59636841 -15.73643494 141.97723389 C-14.44116605 140.68574213 -13.14474427 139.39540578 -11.84726715 138.10613251 C-9.79392822 136.06565004 -7.74381108 134.02197847 -5.69447327 131.97747803 C-1.35001347 127.64439209 2.99837957 123.31526672 7.34733582 118.98669434 C12.40268149 113.95496009 17.45639615 108.92160996 22.50592804 103.88404083 C24.52583966 101.87061148 26.54873783 99.86021572 28.57176208 97.84991455 C29.80601979 96.61928824 31.04013796 95.38852194 32.27409363 94.15759277 C32.8372226 93.59963013 33.40035156 93.04166748 33.98054504 92.46679688 C38.96262457 87.56880195 38.96262457 87.56880195 40.65983582 81.04919434 C40.51256206 77.15234566 39.76399792 75.345662 37.11564636 72.49987793 C36.4781546 71.80940369 35.84066284 71.11892944 35.18385315 70.40753174 C34.49530243 69.6911554 33.80675171 68.97477905 33.09733582 68.23669434 C32.41386078 67.52466858 31.73038574 66.81264282 31.02619934 66.07904053 C28.78164036 63.77310427 26.51569974 61.49032311 24.24186707 59.21325684 C23.41780869 58.38587006 22.59375031 57.55848328 21.74472046 56.70602417 C20.0156672 54.97194039 18.28528579 53.23917997 16.55363464 51.50769043 C13.90190545 48.85375738 11.25829767 46.19190539 8.61491394 43.52966309 C6.92855439 41.8403723 5.24172203 40.15155334 3.55436707 38.46325684 C2.37146843 37.26957993 2.37146843 37.26957993 1.16467285 36.05178833 C0.42678024 35.31697235 -0.31111237 34.58215637 -1.07136536 33.82507324 C-1.71643539 33.17857819 -2.36150543 32.53208313 -3.02612305 31.86599731 C-5.84713724 29.41665755 -8.07387429 28.34479737 -11.77766418 27.86169434 C-18.48342461 28.66638559 -23.09679855 34.14889761 -27.64241028 38.74938965 C-28.28702209 39.39370941 -28.93163391 40.03802917 -29.59577942 40.70187378 C-31.71066628 42.81814632 -33.81839356 44.94139908 -35.92610168 47.06481934 C-37.39682491 48.53927539 -38.86799232 50.0132885 -40.33958435 51.48687744 C-44.20074903 55.35565725 -48.05586818 59.23040675 -51.90974426 63.10644531 C-55.84774953 67.06495468 -59.7914633 71.01776786 -63.73469543 74.97106934 C-71.46293808 82.72072449 -79.18480373 90.4767005 -86.90266418 98.23669434 C-92.40820476 92.89347248 -94.62814414 88.44450105 -95.03547668 80.71716309 C-94.29492021 66.88618188 -84.80595923 58.40612001 -75.57063293 49.27575684 C-74.25092576 47.95521949 -72.93203599 46.63386479 -71.61392212 45.31173706 C-68.86055762 42.55552699 -66.09868951 39.80822985 -63.33015442 37.06726074 C-59.79439198 33.56562827 -56.27910623 30.04424786 -52.7697401 26.51618385 C-50.05329721 23.78914049 -47.32714026 21.07197885 -44.59790993 18.35773849 C-43.29825134 17.06323636 -42.00137481 15.76593447 -40.7074337 14.46571732 C-38.89433947 12.64713214 -37.06874163 10.84207222 -35.23933411 9.03991699 C-34.71490723 8.50896423 -34.19048035 7.97801147 -33.65016174 7.43096924 C-24.97552163 -1.02665244 -11.56279436 -5.37144257 0 0 Z " fill="#0F034E" transform="translate(144.9026641845703,1.7633056640625)"/>
<path d="M0 0 C0.66 1.32 1.32 2.64 2 4 C6.87036597 12.75598375 13.99231997 19.43015865 21.02734375 26.42578125 C22.30281084 27.70327317 23.57783265 28.98120982 24.85243225 30.25956726 C27.51290863 32.92444447 30.17867861 35.5838762 32.84838867 38.23950195 C36.2590593 41.63304736 39.65603507 45.03993339 43.04917049 48.45100117 C45.67494021 51.08763958 48.30784805 53.71705661 50.94293404 56.34438133 C52.19816439 57.59762004 53.45119665 58.85306457 54.70191765 60.1108036 C56.45286742 61.86942258 58.21323629 63.61805709 59.97631836 65.36450195 C60.48406799 65.87832428 60.99181763 66.39214661 61.51495361 66.92153931 C66.18137989 71.50723406 71.17875583 74.08937792 77 77 C51.59 77 26.18 77 0 77 C0 51.59 0 26.18 0 0 Z " fill="#FFFFFF" transform="translate(0,88)"/>
<path d="M0 0 C25.08 0 50.16 0 76 0 C73 2 73 2 69.65698242 3.80981445 C62.75568487 8.13017562 57.21275391 14.31466449 51.48828125 20.04296875 C50.18918676 21.33495054 48.88979911 22.6266376 47.59013367 23.91804504 C44.87610023 26.61867821 42.16802324 29.32512211 39.46362305 32.03540039 C36.01410681 35.49081115 32.54669388 38.92762174 29.07409382 42.35981274 C26.38778199 45.02015405 23.71315139 47.69200922 21.04161644 50.36718178 C19.76864747 51.63846857 18.49173809 52.90582345 17.21068764 54.16896629 C10.43767828 60.85763261 4.38387938 66.87836947 1 76 C0.67 76 0.34 76 0 76 C0 50.92 0 25.84 0 0 Z " fill="#FFFFFF" transform="translate(0,0)"/>
<path d="M0 0 C1.72265625 1.48046875 1.72265625 1.48046875 3 3 C2.83866104 5.58142336 2.20140026 6.75481707 0.5625 8.75 C-1 10 -1 10 -3 10 C-3.37125 10.928125 -3.37125 10.928125 -3.75 11.875 C-5.23740369 14.40358627 -6.43678009 14.71839004 -9 16 C-9.33 16.66 -9.66 17.32 -10 18 C-11.26422764 20.52845528 -12.52845528 20.76422764 -15 22 C-15.33 22.66 -15.66 23.32 -16 24 C-17.26422764 26.52845528 -18.52845528 26.76422764 -21 28 C-21.33 28.66 -21.66 29.32 -22 30 C-23.26422764 32.52845528 -24.52845528 32.76422764 -27 34 C-27.495 34.99 -27.495 34.99 -28 36 C-29.26422764 38.52845528 -30.52845528 38.76422764 -33 40 C-33.495 40.99 -33.495 40.99 -34 42 C-35.26422764 44.52845528 -36.52845528 44.76422764 -39 46 C-39.495 46.99 -39.495 46.99 -40 48 C-41.26422764 50.52845528 -42.52845528 50.76422764 -45 52 C-45.433125 52.928125 -45.433125 52.928125 -45.875 53.875 C-47.94717819 57.78911436 -51.79034538 59.43736995 -55.6875 61.25 C-64.34360833 63.20987358 -70.89189775 62.1558046 -78.8828125 58.38671875 C-81 57 -81 57 -82 54 C-72 44 -72 44 -69.4375 41.5 C-66.97984112 39.07084467 -66.97984112 39.07084467 -65 36.4375 C-62.88121393 33.85522947 -60.62797078 32.05109914 -58 30 C-56.31237149 28.3545622 -54.6459651 26.68711423 -53 25 C-50.48909203 22.48909203 -47.97923975 19.9797461 -45.4375 17.5 C-42.97984112 15.07084467 -42.97984112 15.07084467 -41 12.4375 C-38.88121393 9.85522947 -36.62797078 8.05109914 -34 6 C-33.175 5.154375 -32.35 4.30875 -31.5 3.4375 C-22.90193627 -4.94561214 -10.47720975 -5.14335751 0 0 Z " fill="#C36D29" transform="translate(147,53)"/>
<path d="M0 0 C2.25726011 1.89121793 3.68646424 3.37292849 5 6 C5.15129552 8.78441955 5.23138429 11.52712487 5.25 14.3125 C5.270625 15.07240234 5.29125 15.83230469 5.3125 16.61523438 C5.34464805 21.24053535 4.99608665 24.24034757 2 28 C-1.44741547 29.72370774 -5.23035339 29.50306672 -9 29 C-11.50160818 27.12379387 -12.61945652 25.76108697 -14 23 C-14.15129552 20.21558045 -14.23138429 17.47287513 -14.25 14.6875 C-14.270625 13.92759766 -14.29125 13.16769531 -14.3125 12.38476562 C-14.34466574 7.75691928 -13.99738245 4.75930701 -11 1 C-7.1230868 -1.30519163 -4.28479093 -1.2763207 0 0 Z " fill="#005DA8" transform="translate(279,92)"/>
<path d="M0 0 C2.81005071 2.27841949 3.84898818 3.54696453 5 7 C5.14675735 9.45536342 5.22100698 11.91542552 5.25 14.375 C5.27578125 15.68210937 5.3015625 16.98921875 5.328125 18.3359375 C4.89686142 23.15171409 3.36463888 25.63536112 0 29 C-3.55234722 30.31944325 -5.02940315 29.99003283 -8.6875 28.75 C-12 27 -12 27 -14 24 C-14.47499843 20.89112583 -14.41627436 17.76639509 -14.4375 14.625 C-14.47037109 13.77421875 -14.50324219 12.9234375 -14.53710938 12.046875 C-14.57553416 7.56165522 -14.47561706 5.61774636 -11.66015625 1.9609375 C-7.47637682 -1.12314073 -4.95012015 -1.31329718 0 0 Z " fill="#005DA8" transform="translate(428,43)"/>
<path d="M0 0 C2.25726011 1.89121793 3.68646424 3.37292849 5 6 C5.20433959 8.7673419 5.32378498 11.47973281 5.375 14.25 C5.41238281 15.00152344 5.44976562 15.75304687 5.48828125 16.52734375 C5.55165933 20.5624151 5.25830712 23.24583607 2.76171875 26.5078125 C-0.03373864 29.0304459 -0.89895575 29.79065591 -4.5625 29.625 C-7.80798901 29.40899408 -8.82357724 29.13231707 -11.5 27.125 C-14.37470561 23.05250038 -14.21760811 19.53413666 -14.25 14.6875 C-14.270625 13.92759766 -14.29125 13.16769531 -14.3125 12.38476562 C-14.34466574 7.75691928 -13.99738245 4.75930701 -11 1 C-7.1230868 -1.30519163 -4.28479093 -1.2763207 0 0 Z " fill="#005DA8" transform="translate(467,92)"/>
<path d="M0 0 C1.98 0 3.96 0 6 0 C7.98 6.6 9.96 13.2 12 20 C12.804375 17.628125 13.60875 15.25625 14.4375 12.8125 C14.68943115 12.07491455 14.9413623 11.3373291 15.20092773 10.57739258 C16.37826603 7.07470472 17.38424561 3.64498287 18 0 C19.98 0 21.96 0 24 0 C24 9.57 24 19.14 24 29 C22.68 29 21.36 29 20 29 C19.67 23.72 19.34 18.44 19 13 C17.35 18.28 15.7 23.56 14 29 C12.68 28.67 11.36 28.34 10 28 C8.8643601 25.24756749 8.02433908 22.78572356 7.25 19.9375 C6.13625 16.0084375 6.13625 16.0084375 5 12 C5 17.61 5 23.22 5 29 C3.35 29 1.7 29 0 29 C0 19.43 0 9.86 0 0 Z " fill="#005DA8" transform="translate(288,92)"/>
<path d="M0 0 C13 0 13 0 17 3 C18.12962701 7.06665724 18.43625505 9.10852228 16.5625 12.9375 C15.7890625 13.9584375 15.7890625 13.9584375 15 15 C15.474375 15.639375 15.94875 16.27875 16.4375 16.9375 C18.47031387 20.92181519 18.7210529 24.58494074 19 29 C17.35 29 15.7 29 14 29 C12.85185003 26.70370006 12.69230191 24.92301914 12.4375 22.375 C12.35371094 21.55773437 12.26992188 20.74046875 12.18359375 19.8984375 C12.12300781 19.27195312 12.06242187 18.64546875 12 18 C9.36 17.67 6.72 17.34 4 17 C4 20.96 4 24.92 4 29 C2.68 29 1.36 29 0 29 C0 19.43 0 9.86 0 0 Z " fill="#005DA8" transform="translate(318,43)"/>
<path d="M0 0 C12 0 12 0 15.25 2.125 C17.29832076 5.49009839 17.57659252 7.12859307 17 11 C16 13.375 16 13.375 15 15 C15.99 16.485 15.99 16.485 17 18 C17.4140625 20.69921875 17.4140625 20.69921875 17.625 23.6875 C17.69976562 24.68136719 17.77453125 25.67523438 17.8515625 26.69921875 C17.90054687 27.45847656 17.94953125 28.21773437 18 29 C16.35 29 14.7 29 13 29 C12.93941406 28.37351562 12.87882812 27.74703125 12.81640625 27.1015625 C12.73261719 26.28429687 12.64882813 25.46703125 12.5625 24.625 C12.48128906 23.81289062 12.40007812 23.00078125 12.31640625 22.1640625 C12.10909886 19.95727195 12.10909886 19.95727195 11 18 C8.67843403 17.59270772 6.3431213 17.25561323 4 17 C4 20.96 4 24.92 4 29 C2.68 29 1.36 29 0 29 C0 19.43 0 9.86 0 0 Z " fill="#005DA8" transform="translate(402,92)"/>
<path d="M0 0 C4.62 0 9.24 0 14 0 C18.9047619 4.9047619 18.9047619 4.9047619 19 9 C17.01399177 15.16707819 17.01399177 15.16707819 14.25 17.4375 C11.13376181 18.21655955 8.19555328 18.1229059 5 18 C5 21.63 5 25.26 5 29 C3.35 29 1.7 29 0 29 C0 19.43 0 9.86 0 0 Z " fill="#005DA8" transform="translate(541,92)"/>
<path d="M0 0 C2.1484375 1.40234375 2.1484375 1.40234375 4 4 C4.60262757 7.50713894 4.55780613 10.94974003 4.5 14.5 C4.51546875 15.45003906 4.5309375 16.40007812 4.546875 17.37890625 C4.50827937 24.23927898 4.50827937 24.23927898 2.24609375 27.625 C-1.48137318 29.90685802 -4.77447502 29.74435404 -9 29 C-12.0625 27.3125 -12.0625 27.3125 -14 25 C-14.3125 22.25 -14.3125 22.25 -14 20 C-12.68 20 -11.36 20 -10 20 C-9.67 21.65 -9.34 23.3 -9 25 C-6.66705225 25.04241723 -4.33297433 25.04092937 -2 25 C-0.70366379 23.93354885 -0.70366379 23.93354885 -0.9375 21.4375 C-0.958125 20.633125 -0.97875 19.82875 -1 19 C-1.77085937 18.63648437 -2.54171875 18.27296875 -3.3359375 17.8984375 C-11.53274653 13.78949724 -11.53274653 13.78949724 -13.8125 9.9375 C-14.03190491 6.50015641 -13.88115334 4.90011139 -12 2 C-7.7528669 -0.89577257 -4.91655431 -1.60322423 0 0 Z " fill="#005DA8" transform="translate(596,92)"/>
<path d="M0 0 C13 0 13 0 18 4 C18.86952921 7.06765583 18.62951229 9.88677557 18 13 C15.80168636 16.03215675 14.55036806 16.81654398 11 18 C8.66700175 18.03954234 6.33291811 18.04401732 4 18 C4 21.63 4 25.26 4 29 C2.68 29 1.36 29 0 29 C0 19.43 0 9.86 0 0 Z " fill="#005DA8" transform="translate(317,92)"/>
<path d="M0 0 C5 1 5 1 6.30200195 2.58227539 C6.61097412 3.24735107 6.91994629 3.91242676 7.23828125 4.59765625 C7.58310547 5.31630859 7.92792969 6.03496094 8.28320312 6.77539062 C8.62287109 7.53013672 8.96253906 8.28488281 9.3125 9.0625 C9.67150391 9.82111328 10.03050781 10.57972656 10.40039062 11.36132812 C11.28335948 13.2332221 12.14387587 15.11567717 13 17 C13.33 11.39 13.66 5.78 14 0 C15.65 0 17.3 0 19 0 C19 9.57 19 19.14 19 29 C17.35 29 15.7 29 14 29 C11.03 23.06 8.06 17.12 5 11 C4.67 16.94 4.34 22.88 4 29 C2.68 29 1.36 29 0 29 C0 19.43 0 9.86 0 0 Z " fill="#005DA8" transform="translate(341,43)"/>
<path d="M0 0 C1.65 0 3.3 0 5 0 C7.97 5.94 10.94 11.88 14 18 C14.495 9.09 14.495 9.09 15 0 C16.32 0 17.64 0 19 0 C19 9.57 19 19.14 19 29 C14 28 14 28 12.60620117 26.23413086 C12.07990112 25.11083374 12.07990112 25.11083374 11.54296875 23.96484375 C10.95805664 22.75151367 10.95805664 22.75151367 10.36132812 21.51367188 C9.7802832 20.2384668 9.7802832 20.2384668 9.1875 18.9375 C8.78080078 18.08349609 8.37410156 17.22949219 7.95507812 16.34960938 C6.95367496 14.24077212 5.97466422 12.12132801 5 10 C4.67 16.27 4.34 22.54 4 29 C2.68 29 1.36 29 0 29 C0 19.43 0 9.86 0 0 Z " fill="#005DA8" transform="translate(437,43)"/>
<path d="M0 0 C5 1 5 1 6.39379883 2.76586914 C6.74466553 3.51473389 7.09553223 4.26359863 7.45703125 5.03515625 C7.84697266 5.84404297 8.23691406 6.65292969 8.63867188 7.48632812 C9.02603516 8.33646484 9.41339844 9.18660156 9.8125 10.0625 C10.21919922 10.91650391 10.62589844 11.77050781 11.04492188 12.65039062 C12.04632504 14.75922788 13.02533578 16.87867199 14 19 C14.33 12.73 14.66 6.46 15 0 C16.32 0 17.64 0 19 0 C19 9.57 19 19.14 19 29 C17.35 29 15.7 29 14 29 C11.03 23.06 8.06 17.12 5 11 C4.67 16.94 4.34 22.88 4 29 C2.68 29 1.36 29 0 29 C0 19.43 0 9.86 0 0 Z " fill="#005DA8" transform="translate(255,43)"/>
<path d="M0 0 C1.65 0 3.3 0 5 0 C8 6 11 12 14 18 C14.495 9.09 14.495 9.09 15 0 C16.32 0 17.64 0 19 0 C19 9.57 19 19.14 19 29 C17.68 29 16.36 29 15 29 C11.7 22.73 8.4 16.46 5 10 C4.67 16.27 4.34 22.54 4 29 C2.68 29 1.36 29 0 29 C0 19.43 0 9.86 0 0 Z " fill="#005DA8" transform="translate(476,92)"/>
<path d="M0 0 C1.65 0 3.3 0 5 0 C6.14279996 3.80756023 7.28203874 7.61616564 8.41796875 11.42578125 C8.80500802 12.72197318 9.19302409 14.01787386 9.58203125 15.31347656 C10.14058225 17.17436331 10.6953462 19.03638544 11.25 20.8984375 C11.58515625 22.01911621 11.9203125 23.13979492 12.265625 24.29443359 C13 27 13 27 13 29 C11.35 28.67 9.7 28.34 8 28 C7.67 26.02 7.34 24.04 7 22 C4.03 22.33 1.06 22.66 -2 23 C-2.66 24.98 -3.32 26.96 -4 29 C-5.32 29 -6.64 29 -8 29 C-6.36559954 19.0301572 -3.13564949 9.57803752 0 0 Z " fill="#005DA8" transform="translate(468,43)"/>
<path d="M0 0 C1.32 0 2.64 0 4 0 C5.34282929 4.08027251 6.67260795 8.16468191 8 12.25 C8.3815625 13.40886719 8.763125 14.56773438 9.15625 15.76171875 C9.5171875 16.87675781 9.878125 17.99179687 10.25 19.140625 C10.58515625 20.16704102 10.9203125 21.19345703 11.265625 22.25097656 C12 25 12 25 12 29 C10.68 29 9.36 29 8 29 C7.34 27.02 6.68 25.04 6 23 C3.03 22.67 0.06 22.34 -3 22 C-3.33 23.98 -3.66 25.96 -4 28 C-5.65 28.33 -7.3 28.66 -9 29 C-7.37483025 22.02366157 -5.5008422 15.15089502 -3.375 8.3125 C-3.04786011 7.25192383 -3.04786011 7.25192383 -2.71411133 6.16992188 C-1.12487084 1.12487084 -1.12487084 1.12487084 0 0 Z " fill="#005DA8" transform="translate(372,43)"/>
<path d="M0 0 C1.32 0 2.64 0 4 0 C4.33 8.25 4.66 16.5 5 25 C7.64 25 10.28 25 13 25 C13.33 16.75 13.66 8.5 14 0 C15.32 0 16.64 0 18 0 C18.11643304 3.89558088 18.18732909 7.79071258 18.25 11.6875 C18.30027344 13.34168945 18.30027344 13.34168945 18.3515625 15.02929688 C18.44966266 23.14708482 18.44966266 23.14708482 16.296875 27.23046875 C13.63322317 29.28256786 12.3375401 29.67587714 9 29.625 C7.7315625 29.64433594 7.7315625 29.64433594 6.4375 29.6640625 C4 29 4 29 1.703125 27.23046875 C-0.95431799 22.18986014 -0.42017338 17.28685876 -0.25 11.6875 C-0.22292969 10.00430664 -0.22292969 10.00430664 -0.1953125 8.28710938 C-0.14827856 5.52386553 -0.08256317 2.76237302 0 0 Z " fill="#005DA8" transform="translate(339,92)"/>
<path d="M0 0 C5.28 0 10.56 0 16 0 C16 0.99 16 1.98 16 3 C12.04 3 8.08 3 4 3 C4 5.97 4 8.94 4 12 C7.63 12 11.26 12 15 12 C15 13.32 15 14.64 15 16 C11.37 16 7.74 16 4 16 C4 19.3 4 22.6 4 26 C8.29 26 12.58 26 17 26 C17 26.99 17 27.98 17 29 C11.39 29 5.78 29 0 29 C0 19.43 0 9.86 0 0 Z " fill="#005DA8" transform="translate(298,43)"/>
<path d="M0 0 C5.28 0 10.56 0 16 0 C16 0.99 16 1.98 16 3 C12.04 3 8.08 3 4 3 C4 5.97 4 8.94 4 12 C7.3 12 10.6 12 14 12 C14 13.32 14 14.64 14 16 C10.7 16 7.4 16 4 16 C4 19.3 4 22.6 4 26 C7.96 26 11.92 26 16 26 C16 26.99 16 27.98 16 29 C10.72 29 5.44 29 0 29 C0 19.43 0 9.86 0 0 Z " fill="#005DA8" transform="translate(522,92)"/>
<path d="M0 0 C5.28 0 10.56 0 16 0 C16 0.99 16 1.98 16 3 C12.04 3 8.08 3 4 3 C4 5.97 4 8.94 4 12 C7.3 12 10.6 12 14 12 C14 13.32 14 14.64 14 16 C10.7 16 7.4 16 4 16 C4 19.3 4 22.6 4 26 C7.96 26 11.92 26 16 26 C16 26.99 16 27.98 16 29 C10.72 29 5.44 29 0 29 C0 19.43 0 9.86 0 0 Z " fill="#005DA8" transform="translate(382,92)"/>
<path d="M0 0 C2.4375 2.3125 2.4375 2.3125 4 5 C4 6.32 4 7.64 4 9 C2.68 9 1.36 9 0 9 C-0.20625 8.195625 -0.4125 7.39125 -0.625 6.5625 C-1.07875 5.716875 -1.5325 4.87125 -2 4 C-5.05272465 3.10169161 -5.05272465 3.10169161 -8 3 C-9.22571316 6.83403077 -9.16794399 10.56134077 -9.1875 14.5625 C-9.19974609 15.23474609 -9.21199219 15.90699219 -9.22460938 16.59960938 C-9.23562975 20.29878237 -9.10685378 21.83971933 -7 25 C-4.41619823 25.25030977 -4.41619823 25.25030977 -2 25 C-1.34 23.35 -0.68 21.7 0 20 C1.32 20 2.64 20 4 20 C3.39031225 25.48718975 3.39031225 25.48718975 1.73046875 27.66796875 C-0.42762554 29.32916548 -1.67011871 29.46307329 -4.375 29.5 C-5.50035156 29.54640625 -5.50035156 29.54640625 -6.6484375 29.59375 C-10.36762843 28.65468518 -11.74189145 27.07353663 -14 24 C-14.71747327 20.81155766 -14.69979782 17.75619838 -14.625 14.5 C-14.64433594 13.65824219 -14.66367187 12.81648438 -14.68359375 11.94921875 C-14.64832468 7.47004694 -14.45746173 5.57441796 -11.5859375 1.96875 C-7.29869337 -1.2952546 -5.30012206 -1.27933981 0 0 Z " fill="#005DA8" transform="translate(446,92)"/>
<path d="M0 0 C2.9375 -0.5 2.9375 -0.5 6 0 C8.967819 3.78101531 9.40819686 6.76391473 9.375 11.5 C9.38273437 12.6034375 9.39046875 13.706875 9.3984375 14.84375 C8.95964782 18.31965256 8.12502075 20.23442276 6 23 C3.5 23.5 3.5 23.5 1 23 C-0.63354492 21.71289062 -0.63354492 21.71289062 -2 20 C-2.27145356 17.08114448 -2.37324966 14.41112363 -2.3125 11.5 C-2.31572266 10.72785156 -2.31894531 9.95570312 -2.32226562 9.16015625 C-2.28523859 5.27568334 -2.19788099 3.29682149 0 0 Z " fill="#FFFFFF" transform="translate(420,46)"/>
<path d="M0 0 C2.5 0.5 2.5 0.5 4.1328125 2.0625 C6.0341317 5.45228051 5.89782169 8.13552707 5.875 12 C5.88273437 13.3096875 5.89046875 14.619375 5.8984375 15.96875 C5.49203681 19.57057569 5.08755343 21.02387231 2.5 23.5 C0 24 0 24 -2.5 23.5 C-5.08755343 21.02387231 -5.49203681 19.57057569 -5.8984375 15.96875 C-5.89070313 14.6590625 -5.88296875 13.349375 -5.875 12 C-5.88273437 10.6903125 -5.89046875 9.380625 -5.8984375 8.03125 C-5.40120765 3.62442855 -4.5761953 0.91523906 0 0 Z " fill="#FFFFFF" transform="translate(462.5,94.5)"/>
<path d="M0 0 C2.5 0.5 2.5 0.5 4.12890625 2.0625 C6.03285733 5.44730192 5.93369814 8.13731157 5.9375 12 C5.95683594 13.3096875 5.97617187 14.619375 5.99609375 15.96875 C5.5 19.5 5.5 19.5 3.63671875 21.97265625 C1.5 23.5 1.5 23.5 -1.125 23.4375 C-3.5 22.5 -3.5 22.5 -5.5 19.5 C-5.72150947 16.97133995 -5.82461127 14.58891112 -5.8125 12.0625 C-5.82925781 10.74378906 -5.84601563 9.42507812 -5.86328125 8.06640625 C-5.41156077 3.63177403 -4.60196666 0.92039333 0 0 Z " fill="#FFFFFF" transform="translate(274.5,94.5)"/>
<path d="M0 0 C1.875 1.1875 1.875 1.1875 3 3 C3.6875 6.1875 3.6875 6.1875 4 9 C2.68 9 1.36 9 0 9 C-0.66 7.35 -1.32 5.7 -2 4 C-3.98 4 -5.96 4 -8 4 C-9.17426264 6.34852528 -9.11508173 7.73774065 -9.09765625 10.3515625 C-9.09443359 11.20234375 -9.09121094 12.053125 -9.08789062 12.9296875 C-9.07951172 13.81914063 -9.07113281 14.70859375 -9.0625 15.625 C-9.05798828 16.5221875 -9.05347656 17.419375 -9.04882812 18.34375 C-9.03702591 20.56256648 -9.02056155 22.78125018 -9 25 C-6.36 25 -3.72 25 -1 25 C-0.67 23.35 -0.34 21.7 0 20 C1.32 20 2.64 20 4 20 C2.25 26.75 2.25 26.75 0 29 C-1.98828125 29.37109375 -1.98828125 29.37109375 -4.3125 29.4375 C-5.45138672 29.49744141 -5.45138672 29.49744141 -6.61328125 29.55859375 C-10.37890069 28.67727856 -11.73266551 27.10079717 -14 24 C-14.69292531 20.81047844 -14.65462258 17.75167799 -14.5625 14.5 C-14.57345703 13.65824219 -14.58441406 12.81648438 -14.59570312 11.94921875 C-14.54719147 7.84189848 -14.32794508 5.53802406 -12.15234375 1.96875 C-8.1802971 -1.66448323 -5.03215151 -1.07831818 0 0 Z " fill="#005DA8" transform="translate(514,92)"/>
<path d="M0 0 C2.7682485 1.81368005 2.97690674 2.89293126 3.6875 6.1875 C3.790625 7.115625 3.89375 8.04375 4 9 C2.68 9 1.36 9 0 9 C-0.66 7.35 -1.32 5.7 -2 4 C-3.98 4 -5.96 4 -8 4 C-9.5720124 7.14402481 -9.18446744 10.48947397 -9.1875 13.9375 C-9.19974609 14.66646484 -9.21199219 15.39542969 -9.22460938 16.14648438 C-9.23512685 19.9713391 -9.17095624 21.74356564 -7 25 C-3.91634129 25.2502157 -3.91634129 25.2502157 -1 25 C-0.67 23.35 -0.34 21.7 0 20 C1.32 20 2.64 20 4 20 C3.39067524 25.48392283 3.39067524 25.48392283 1.734375 27.671875 C-1.02605838 29.78572038 -3.47383995 29.46727161 -6.83984375 29.36328125 C-9 29 -9 29 -11.5 27.125 C-14.37470561 23.05250038 -14.21760811 19.53413666 -14.25 14.6875 C-14.270625 13.92759766 -14.29125 13.16769531 -14.3125 12.38476562 C-14.34466574 7.75691928 -13.99738245 4.75930701 -11 1 C-7.11979352 -1.3071498 -4.29788294 -1.21461909 0 0 Z " fill="#005DA8" transform="translate(258,92)"/>
<path d="M0 0 C6.27 0 12.54 0 19 0 C19 0.99 19 1.98 19 3 C16.36 3 13.72 3 11 3 C11 11.58 11 20.16 11 29 C9.68 29 8.36 29 7 29 C7 20.42 7 11.84 7 3 C4.69 3 2.38 3 0 3 C0 2.01 0 1.02 0 0 Z " fill="#005DA8" transform="translate(383,43)"/>
<path d="M0 0 C6.27 0 12.54 0 19 0 C19 0.99 19 1.98 19 3 C16.69 3 14.38 3 12 3 C12 11.58 12 20.16 12 29 C10.68 29 9.36 29 8 29 C8 20.42 8 11.84 8 3 C5.36 3 2.72 3 0 3 C0 2.01 0 1.02 0 0 Z " fill="#005DA8" transform="translate(276,43)"/>
<path d="M0 0 C5.94 0 11.88 0 18 0 C18 0.99 18 1.98 18 3 C15.69 3 13.38 3 11 3 C11 11.58 11 20.16 11 29 C9.68 29 8.36 29 7 29 C7 20.42 7 11.84 7 3 C4.69 3 2.38 3 0 3 C0 2.01 0 1.02 0 0 Z " fill="#005DA8" transform="translate(562,92)"/>
<path d="M0 0 C5.94 0 11.88 0 18 0 C18 0.99 18 1.98 18 3 C15.69 3 13.38 3 11 3 C11 11.58 11 20.16 11 29 C9.68 29 8.36 29 7 29 C7 20.42 7 11.84 7 3 C4.69 3 2.38 3 0 3 C0 2.01 0 1.02 0 0 Z " fill="#005DA8" transform="translate(360,92)"/>
<path d="M0 0 C1.32 0 2.64 0 4 0 C4 8.58 4 17.16 4 26 C7.63 26 11.26 26 15 26 C15 26.99 15 27.98 15 29 C10.05 29 5.1 29 0 29 C0 19.43 0 9.86 0 0 Z " fill="#005DA8" transform="translate(484,43)"/>
<path d="M0 0 C1.32 0 2.64 0 4 0 C4 9.57 4 19.14 4 29 C2.68 29 1.36 29 0 29 C0 19.43 0 9.86 0 0 Z " fill="#005DA8" transform="translate(405,43)"/>
<path d="M0 0 C1.32 0 2.64 0 4 0 C4 9.57 4 19.14 4 29 C2.68 29 1.36 29 0 29 C0 19.43 0 9.86 0 0 Z " fill="#005DA8" transform="translate(245,43)"/>
<path d="M0 0 C1.98 0 3.96 0 6 0 C6.66 1.65 7.32 3.3 8 5 C9.32 5 10.64 5 12 5 C12 8.3 12 11.6 12 15 C10.9790625 14.1028125 10.9790625 14.1028125 9.9375 13.1875 C7.0391975 10.81254626 7.0391975 10.81254626 3.25 9.625 C2.1775 9.08875 1.105 8.5525 0 8 C-1.04905767 4.78726088 -1.5312977 3.0625954 0 0 Z " fill="#FFFFFF" transform="translate(588,95)"/>
<path d="M0 0 C1.27875 -0.061875 2.5575 -0.12375 3.875 -0.1875 C4.95394531 -0.23970703 4.95394531 -0.23970703 6.0546875 -0.29296875 C6.69664062 -0.19628906 7.33859375 -0.09960938 8 0 C10 3 10 3 9.6875 6.625 C9 10 9 10 8 11 C5.32941149 11.14115161 2.67567762 11.04247107 0 11 C0 7.37 0 3.74 0 0 Z " fill="#FFFFFF" transform="translate(321,95)"/>
<path d="M0 0 C3.375 -0.125 3.375 -0.125 7 0 C9 2 9 2 9.25 5.5 C9 9 9 9 7 11 C3.375 11.125 3.375 11.125 0 11 C0 7.37 0 3.74 0 0 Z " fill="#FFFFFF" transform="translate(546,95)"/>
<path d="M0 0 C3.375 -0.125 3.375 -0.125 7 0 C9 2 9 2 9.1875 5 C9 8 9 8 8 10 C5.36 10 2.72 10 0 10 C0 6.7 0 3.4 0 0 Z " fill="#FFFFFF" transform="translate(322,46)"/>
<path d="M0 0 C5.75 -0.125 5.75 -0.125 8 1 C8.75 3.875 8.75 3.875 9 7 C8.01 8.485 8.01 8.485 7 10 C3.375 10.1875 3.375 10.1875 0 10 C0 6.7 0 3.4 0 0 Z " fill="#FFFFFF" transform="translate(406,95)"/>
<path d="M0 0 C2.45823172 3.68734758 3.01242616 6.69699971 4 11 C1.69 11 -0.62 11 -3 11 C-2.69078116 9.54096742 -2.37751201 8.08279278 -2.0625 6.625 C-1.88847656 5.81289063 -1.71445312 5.00078125 -1.53515625 4.1640625 C-1 2 -1 2 0 0 Z " fill="#FFFFFF" transform="translate(470,50)"/>
<path d="M0 0 C2.3129482 2.3129482 2.49580975 3.47904875 3.125 6.625 C3.29257812 7.44226562 3.46015625 8.25953125 3.6328125 9.1015625 C3.81457031 10.04128906 3.81457031 10.04128906 4 11 C2.02 11 0.04 11 -2 11 C-1.125 3.375 -1.125 3.375 0 0 Z " fill="#FFFFFF" transform="translate(373,50)"/>
</svg>
