<?xml version="1.0" standalone="no"?>
<!DOCTYPE svg PUBLIC "-//W3C//DTD SVG 20010904//EN"
 "http://www.w3.org/TR/2001/REC-SVG-20010904/DTD/svg10.dtd">
<svg version="1.0" xmlns="http://www.w3.org/2000/svg"
 width="1200.000000pt" height="630.000000pt" viewBox="0 0 1200.000000 630.000000"
 preserveAspectRatio="xMidYMid meet">

<g transform="translate(0.000000,630.000000) scale(0.100000,-0.100000)"
fill="#000000" stroke="none">
<path d="M4190 3585 l0 -1465 100 0 100 0 0 1465 0 1465 -100 0 -100 0 0
-1465z"/>
<path d="M4650 3585 l0 -1465 100 0 100 0 0 1465 0 1465 -100 0 -100 0 0
-1465z"/>
<path d="M6020 3585 l0 -1465 100 0 100 0 0 35 0 35 42 -30 c120 -87 298 -74
390 28 70 77 68 51 68 957 0 925 3 884 -79 966 -96 97 -261 105 -379 19 l-42
-30 0 475 0 475 -100 0 -100 0 0 -1465z m427 405 c18 -10 40 -31 50 -47 17
-26 18 -72 18 -798 0 -726 -1 -772 -18 -798 -27 -41 -75 -67 -125 -67 -54 0
-94 20 -124 62 l-23 33 0 770 c0 748 1 771 20 799 43 65 137 86 202 46z"/>
<path d="M3105 4181 c-38 -10 -71 -27 -112 -58 l-33 -24 0 35 0 36 -100 0
-100 0 0 -1465 0 -1465 100 0 100 0 0 476 0 475 33 -24 c55 -42 95 -58 160
-64 122 -11 229 44 279 145 l23 47 0 850 c0 763 -2 854 -16 886 -24 53 -74
105 -124 129 -47 23 -160 34 -210 21z m82 -191 c66 -40 63 1 63 -847 0 -744
-1 -769 -20 -800 -56 -92 -203 -82 -252 17 -17 32 -18 91 -18 785 0 694 1 753
18 785 37 74 138 104 209 60z"/>
<path d="M5344 4181 c-94 -24 -177 -92 -226 -183 -23 -42 -23 -49 -23 -333 0
-284 0 -291 24 -337 35 -72 86 -116 256 -223 85 -53 166 -111 180 -127 l25
-30 0 -290 c0 -250 -2 -294 -16 -318 -49 -82 -179 -81 -227 3 -8 15 -14 100
-17 277 l-5 255 -98 3 -98 3 3 -273 3 -273 27 -50 c32 -62 104 -130 166 -158
71 -32 198 -30 272 4 70 33 131 95 167 167 l28 57 0 310 0 310 -26 55 c-41 88
-79 122 -261 236 -113 71 -176 117 -189 138 -17 28 -19 53 -19 269 0 258 3
274 56 316 32 25 101 28 144 6 56 -29 60 -51 60 -305 l0 -230 106 0 106 0 -4
238 c-3 232 -4 238 -29 293 -54 115 -160 187 -286 194 -37 2 -82 1 -99 -4z"/>
<path d="M8271 4175 c-24 -7 -61 -28 -82 -45 l-39 -31 0 36 0 35 -100 0 -100
0 0 -1025 0 -1025 100 0 100 0 2 903 c3 884 3 903 23 929 35 47 68 60 148 57
l72 -2 0 89 0 89 -40 2 c-22 1 -60 -4 -84 -12z"/>
<path d="M3720 3145 l0 -1025 100 0 100 0 0 1025 0 1025 -100 0 -100 0 0
-1025z"/>
<path d="M6982 3238 c4 -1022 1 -973 64 -1047 53 -61 113 -85 214 -85 89 0
145 19 198 67 l22 20 0 -36 0 -37 100 0 100 0 0 1025 0 1025 -100 0 -100 0 0
-885 c0 -958 2 -923 -54 -974 -18 -18 -41 -26 -79 -29 -65 -5 -109 14 -137 61
-19 31 -20 57 -20 930 l0 897 -105 0 -105 0 2 -932z"/>
<path d="M8542 3233 l3 -938 23 -47 c45 -91 142 -148 251 -148 65 0 112 15
170 55 l51 34 0 -475 0 -474 100 0 100 0 0 1465 0 1465 -100 0 -100 0 0 -887
c0 -825 -1 -890 -18 -923 -37 -74 -138 -104 -209 -60 -66 40 -63 -14 -63 975
l0 895 -105 0 -105 0 2 -937z"/>
</g>
</svg>
