<?xml version="1.0" encoding="UTF-8"?>
<svg version="1.1" xmlns="http://www.w3.org/2000/svg" width="576" height="137">
<path d="M0 0 C11.53676534 -0.04667006 23.07350762 -0.08204323 34.6103487 -0.10362434 C39.96935206 -0.11399052 45.32829008 -0.12801607 50.68725586 -0.15087891 C55.87443354 -0.1728663 61.06154901 -0.18462224 66.24876976 -0.18975449 C68.21195643 -0.19340439 70.17514031 -0.20052903 72.13829994 -0.21146011 C101.31816206 -0.36723662 133.87918366 1.46849816 156.6875 21.9375 C168.35330032 34.27350788 172.5578689 51.33994587 172.34985352 67.94482422 C171.74917153 84.61425488 167.34422391 99.51804816 155.4453125 111.8203125 C129.72883697 134.74330506 92.03742908 133.49964488 59.75695801 133.20599365 C55.93437879 133.1746712 52.11173448 133.16147102 48.2890625 133.14648438 C40.85920509 133.11481602 33.42965717 133.06398373 26 133 C25.99853344 132.39739035 25.99706688 131.79478069 25.99555588 131.17391014 C25.95847974 116.5008099 25.89945438 101.82791103 25.81609726 87.1550045 C25.77631347 80.05922448 25.74391772 72.96355525 25.72900391 65.86767578 C25.71459201 59.02052779 25.67947333 52.17373561 25.63169098 45.32674026 C25.61684671 42.71369027 25.60895725 40.10059126 25.60811615 37.48749924 C25.60575405 33.82902102 25.57873274 30.17149754 25.54589844 26.51318359 C25.5509288 25.4313681 25.55595917 24.34955261 25.56114197 23.23495483 C25.47748072 17.21497846 25.11041806 13.53634716 21 9 C16.72394711 6.99971755 12.28253553 6.4901462 7.625 5.875 C6.37976563 5.70742187 5.13453125 5.53984375 3.8515625 5.3671875 C2.91054687 5.24601563 1.96953125 5.12484375 1 5 C0.67 3.35 0.34 1.7 0 0 Z M55 13 C54.08548046 15.76417423 53.87155732 18.30045418 53.85955811 21.19906616 C53.85384796 22.02889511 53.84813782 22.85872406 53.84225464 23.71369934 C53.84113678 24.61561508 53.84001892 25.51753082 53.83886719 26.44677734 C53.83390228 27.40332718 53.82893738 28.35987701 53.82382202 29.34541321 C53.80922018 32.50892863 53.80240212 35.67239392 53.796875 38.8359375 C53.79112248 41.03545127 53.78536476 43.23496502 53.77960205 45.43447876 C53.76909808 50.0461653 53.76325127 54.65783443 53.75976562 59.26953125 C53.75427832 65.1766113 53.73024255 71.08346116 53.70179367 76.99046898 C53.68316508 81.53381014 53.67796159 86.07709583 53.67642975 90.62047195 C53.67340385 92.79815557 53.66537745 94.97583823 53.65224457 97.15348434 C53.6351777 100.20064554 53.6370659 103.24724391 53.64355469 106.29443359 C53.6343399 107.19230087 53.62512512 108.09016815 53.6156311 109.01524353 C53.64938901 114.07950893 54.13620435 117.63391264 57 122 C62.0634569 124.90483353 67.63781003 124.34239456 73.3125 124.3125 C74.38467773 124.30831055 75.45685547 124.30412109 76.56152344 124.29980469 C94.32650911 124.04929334 112.94570462 120.54689147 126.75 108.625 C140.67934814 92.37409383 142.42575964 74.88381432 141 54 C139.47375918 41.95884048 134.31492824 31.18941773 125.43359375 22.87890625 C110.76814393 11.55614322 91.39566531 8.82529877 73.375 8.8125 C72.45976562 8.80025391 71.54453125 8.78800781 70.6015625 8.77539062 C62.07152626 8.70835181 62.07152626 8.70835181 55 13 Z " fill="#C1262C" transform="translate(126,2)"/>
<path d="M0 0 C0.90450897 -0.00678772 1.80901794 -0.01357544 2.74093628 -0.02056885 C5.66326337 -0.03751821 8.58543946 -0.0437652 11.5078125 -0.046875 C12.98997253 -0.05037964 12.98997253 -0.05037964 14.5020752 -0.05395508 C29.43179617 -0.0673248 43.89940417 0.59214125 58.6328125 3.203125 C59.82906922 12.91203002 60.91288006 22.40076037 60.6328125 32.203125 C57.6628125 32.203125 54.6928125 32.203125 51.6328125 32.203125 C51.1171875 31.006875 50.6015625 29.810625 50.0703125 28.578125 C46.43302692 21.35460346 40.08121834 17.03099434 32.6328125 14.203125 C14.9272547 8.91506507 -4.71676797 7.64546839 -21.9296875 15.453125 C-27.71126336 18.67153556 -31.45285307 22.35852899 -33.4921875 28.703125 C-33.33420532 33.12662607 -32.30973057 35.96857384 -29.3671875 39.203125 C-14.97903149 50.4219601 5.49870699 55.05883152 22.48608398 60.74145508 C60.99998318 73.65610611 60.99998318 73.65610611 68.1328125 87.515625 C71.15206849 94.93796265 72.17436203 102.26315286 69.0703125 109.890625 C64.59274032 118.6273512 58.23883181 123.747149 49.6328125 128.203125 C48.91222656 128.58339844 48.19164063 128.96367187 47.44921875 129.35546875 C21.39583629 142.02362719 -14.82730719 139.15146713 -42.3671875 134.203125 C-43.75643851 133.98391877 -45.14575659 133.76513706 -46.53515625 133.546875 C-53.08892421 132.34618469 -53.08892421 132.34618469 -55.3671875 131.203125 C-57.28580642 127.22397748 -57.59882846 123.70040448 -57.4921875 119.328125 C-57.47414062 118.36132812 -57.45609375 117.39453125 -57.4375 116.3984375 C-57.41429687 115.67398438 -57.39109375 114.94953125 -57.3671875 114.203125 C-52.99442083 115.59445985 -48.83261229 117.27017615 -44.6171875 119.078125 C-23.79008474 127.52722235 1.17396815 130.30572772 22.44921875 121.7265625 C29.25015483 118.74469444 35.71101759 115.37480341 38.6328125 108.203125 C39.60552318 103.59059372 39.12703525 100.29901024 37.1953125 96.015625 C24.57173771 82.16048193 1.75811244 76.92192184 -15.3671875 71.015625 C-18.35476512 69.98396271 -21.34136196 68.94984036 -24.32519531 67.90739441 C-26.15957964 67.26653855 -27.99602148 66.6315258 -29.83496094 66.00386047 C-41.6663137 61.87124944 -53.61249187 56.61767138 -59.515625 44.8515625 C-61.85619525 37.57217428 -61.49053898 29.73473579 -58.3671875 22.765625 C-52.29467602 12.48777317 -42.31120264 7.65484186 -31.06933594 4.57324219 C-25.87124608 3.27954243 -20.63656542 2.16523737 -15.3671875 1.203125 C-14.04726807 0.93834351 -14.04726807 0.93834351 -12.70068359 0.66821289 C-8.45108332 0.07531055 -4.28587263 0.02189785 0 0 Z " fill="#C1262C" transform="translate(60.3671875,-0.203125)"/>
<path d="M0 0 C0.88494141 0.00299103 1.76988281 0.00598206 2.68164062 0.00906372 C41.60045367 0.16295367 41.60045367 0.16295367 45.8125 4.375 C46.04157826 6.44423366 46.20793552 8.52047477 46.34765625 10.59765625 C46.43466797 11.85771484 46.52167969 13.11777344 46.61132812 14.41601562 C46.69931764 15.75650393 46.78720695 17.09699881 46.875 18.4375 C46.96637529 19.78192976 47.05816675 21.12633131 47.15039062 22.47070312 C47.37520194 25.77187974 47.5957098 29.07328848 47.8125 32.375 C44.77737436 32.61178285 41.84157886 32.72590527 38.8125 32.375 C36.8671875 30.6171875 36.8671875 30.6171875 35.6875 28.25 C30.94452453 19.99514926 24.89252501 16.05259584 15.8125 13.375 C-2.08240085 8.8964695 -21.37487717 7.91406153 -37.9375 17.3125 C-42.42240848 20.32002686 -45.41611498 23.00941926 -47.125 28.25 C-47.20295796 32.14789777 -46.19274631 35.08584628 -44.1875 38.375 C-32.27870779 48.0388358 -15.28314472 52.69411151 -0.98046875 57.48828125 C-0.1560025 57.76572678 0.66846375 58.0431723 1.51791382 58.32902527 C5.67103968 59.72480212 9.82828807 61.104487 13.99609375 62.45581055 C29.13525562 67.43993539 46.65577607 73.81119024 55.4375 88.0625 C58.16944024 94.6113137 57.96533057 102.50743937 55.96484375 109.21875 C50.66637018 120.85743093 41.20019262 126.66155107 29.8125 131.375 C0.43892046 142.1060355 -41.09939289 141.00510406 -70.1875 130.375 C-70.1875 125.095 -70.1875 119.815 -70.1875 114.375 C-68.95257813 114.90609375 -67.71765625 115.4371875 -66.4453125 115.984375 C-42.33472336 126.14024374 -16.10437763 131.42908643 9.3203125 122.0859375 C16.64935029 118.71854176 21.25472875 114.82329783 25.25 107.875 C26.3114849 103.15728931 25.48609623 99.5742531 23.140625 95.3984375 C14.07168917 83.620994 -6.12452447 79.06818225 -19.62890625 74.515625 C-20.3876152 74.25892029 -21.14632416 74.00221558 -21.92802429 73.73773193 C-25.7553467 72.44357807 -29.58573764 71.16101305 -33.42456055 69.90136719 C-64.00692753 59.74033508 -64.00692753 59.74033508 -71.6875 46.859375 C-75.04253809 39.26394154 -75.17518271 32.41526117 -72.28515625 24.60546875 C-67.76596302 15.42233945 -59.23391649 9.62400724 -49.80154419 6.32887268 C-33.54059185 1.0854846 -16.98176915 -0.15025466 0 0 Z " fill="#C1262C" transform="translate(376.1875,-0.375)"/>
<path d="M0 0 C2.79431654 10.57351196 2.13702257 22.12954282 2 33 C-0.64 33 -3.28 33 -6 33 C-6.4021875 32.18208984 -6.4021875 32.18208984 -6.8125 31.34765625 C-13.42789605 18.61737109 -22.00801983 12.00555209 -35.3046875 7.16015625 C-37.55169401 6.56124595 -39.68529616 6.24587142 -42 6 C-43.23105469 5.86851563 -44.46210937 5.73703125 -45.73046875 5.6015625 C-59.19249132 4.3956093 -73.82634922 4.45990038 -86 11 C-86.78890625 11.42152344 -87.5778125 11.84304687 -88.390625 12.27734375 C-98.21142066 18.14705771 -102.55568077 27.68098171 -105.6875 38.33984375 C-110.14251811 57.92336086 -107.5969058 79.93753569 -97 97 C-87.68373746 110.05349646 -73.62035013 116.58794299 -58.1652832 119.34008789 C-41.01570187 122.10742543 -24.13315014 121.51495782 -7 119 C-6.97311849 120.64574566 -6.95365877 122.29161413 -6.9375 123.9375 C-6.92589844 124.85402344 -6.91429687 125.77054688 -6.90234375 126.71484375 C-7 129 -7 129 -8 130 C-40.59400014 135.13819925 -83.17536248 136.82988291 -111.1875 116.875 C-112.81250471 115.609649 -114.4167505 114.31722226 -116 113 C-116.99515625 112.21882813 -117.9903125 111.43765625 -119.015625 110.6328125 C-132.7859908 98.48461021 -137.9508129 79.9412533 -139.28515625 62.2109375 C-139.70781355 44.7533532 -135.98497175 27.06228788 -123.75 13.9375 C-91.53271357 -15.06912902 -38.94187684 -5.87849112 0 0 Z " fill="#C1262C" transform="translate(574,5)"/>
</svg>
