<?xml version="1.0" encoding="UTF-8" standalone="no"?>
<svg
   xmlns:dc="http://purl.org/dc/elements/1.1/"
   xmlns:cc="http://creativecommons.org/ns#"
   xmlns:rdf="http://www.w3.org/1999/02/22-rdf-syntax-ns#"
   xmlns:svg="http://www.w3.org/2000/svg"
   xmlns="http://www.w3.org/2000/svg"
   xmlns:sodipodi="http://sodipodi.sourceforge.net/DTD/sodipodi-0.dtd"
   xmlns:inkscape="http://www.inkscape.org/namespaces/inkscape"
   width="374.64pt"
   height="176.38pt"
   viewBox="0 0 374.64 176.38"
   version="1.2"
   id="svg58"
   sodipodi:docname="1897819-A_AMDRadeonInstinct_RGB_stacked.svg"
   inkscape:version="0.92.3 (2405546, 2018-03-11)">
  <metadata
     id="metadata62">
    <rdf:RDF>
      <cc:Work
         rdf:about="">
        <dc:format>image/svg+xml</dc:format>
        <dc:type
           rdf:resource="http://purl.org/dc/dcmitype/StillImage" />
        <dc:title></dc:title>
      </cc:Work>
    </rdf:RDF>
  </metadata>
  <sodipodi:namedview
     pagecolor="#ffffff"
     bordercolor="#666666"
     borderopacity="1"
     objecttolerance="10"
     gridtolerance="10"
     guidetolerance="10"
     inkscape:pageopacity="0"
     inkscape:pageshadow="2"
     inkscape:window-width="1600"
     inkscape:window-height="900"
     id="namedview60"
     showgrid="false"
     inkscape:zoom="0.50248236"
     inkscape:cx="249.76001"
     inkscape:cy="117.58667"
     inkscape:window-x="0"
     inkscape:window-y="0"
     inkscape:window-maximized="0"
     inkscape:current-layer="svg58" />
  <defs
     id="defs11">
    <clipPath
       id="clip1">
      <path
         d="M 335 65 L 374.640625 65 L 374.640625 107 L 335 107 Z M 335 65 "
         id="path2" />
    </clipPath>
    <clipPath
       id="clip2">
      <path
         d="M 54 130 L 85 130 L 85 176.378906 L 54 176.378906 Z M 54 130 "
         id="path5" />
    </clipPath>
    <clipPath
       id="clip3">
      <path
         d="M 184 130 L 221 130 L 221 176.378906 L 184 176.378906 Z M 184 130 "
         id="path8" />
    </clipPath>
  </defs>
  <g
     id="surface562">
    <g
       clip-path="url(#clip1)"
       clip-rule="nonzero"
       id="g15">
      <path
         style=" stroke:none;fill-rule:nonzero;fill:rgb(0%,0%,0%);fill-opacity:1;"
         d="M 366.375 65.1875 L 366.375 93.527344 L 343.640625 65.1875 L 335.671875 65.1875 L 335.671875 106.519531 L 343.9375 106.519531 L 343.9375 78.175781 L 366.667969 106.519531 L 374.640625 106.519531 L 374.640625 65.1875 L 366.375 65.1875 "
         id="path13" />
    </g>
    <path
       style=" stroke:none;fill-rule:nonzero;fill:rgb(0%,0%,0%);fill-opacity:1;"
       d="M 84.164062 65.1875 L 65.859375 106.515625 L 75.03125 106.511719 L 89.460938 73.480469 L 89.476562 73.453125 L 95.96875 88.507812 L 88.742188 88.507812 L 88.585938 88.667969 L 88.742188 88.503906 L 81.660156 95.589844 L 81.78125 95.585938 L 99.21875 95.59375 L 103.941406 106.515625 L 113.09375 106.515625 L 94.789062 65.1875 L 84.164062 65.1875 "
       id="path17" />
    <path
       style=" stroke:none;fill-rule:nonzero;fill:rgb(0%,0%,0%);fill-opacity:1;"
       d="M 208.027344 65.1875 L 208.027344 106.515625 L 238.722656 106.515625 L 238.722656 99.445312 L 216.234375 99.445312 L 216.234375 89.429688 L 235.75 89.429688 L 235.75 82.21875 L 216.234375 82.21875 L 216.234375 72.273438 L 234.914062 72.273438 L 242 65.1875 L 208.027344 65.1875 "
       id="path19" />
    <path
       style=" stroke:none;fill-rule:nonzero;fill:rgb(0%,0%,0%);fill-opacity:1;"
       d="M 274.882812 65.1875 L 274.882812 65.195312 L 274.878906 65.191406 L 267.875 72.195312 L 267.875 99.5 L 274.878906 106.503906 L 274.882812 106.503906 L 274.882812 106.507812 L 299.355469 106.507812 L 299.355469 106.503906 L 306.359375 99.5 L 306.359375 72.195312 L 299.355469 65.191406 L 299.355469 65.195312 L 299.355469 65.1875 Z M 275.289062 96.085938 L 275.289062 75.609375 L 279.152344 71.753906 L 295.085938 71.753906 L 298.945312 75.609375 L 298.945312 96.085938 L 295.085938 99.945312 L 279.152344 99.945312 L 275.289062 96.085938 "
       id="path21" />
    <path
       style=" stroke:none;fill-rule:nonzero;fill:rgb(0%,0%,0%);fill-opacity:1;"
       d="M 0.0195312 65.1875 L 0.0195312 106.519531 L 8.289062 106.519531 L 8.289062 92.9375 L 20.980469 92.9375 L 30.722656 106.519531 L 40.464844 106.519531 L 30.429688 92.640625 L 30.425781 92.636719 L 36.75 86.3125 L 36.75 72.097656 L 29.839844 65.1875 Z M 8.289062 72.273438 L 25.996094 72.273438 L 29.25 75.523438 L 29.25 82.621094 L 26 85.851562 L 8.289062 85.851562 L 8.289062 72.273438 "
       id="path23" />
    <path
       style=" stroke:none;fill-rule:nonzero;fill:rgb(0%,0%,0%);fill-opacity:1;"
       d="M 139.777344 65.1875 L 139.777344 106.519531 L 170.46875 106.519531 L 178.746094 98.242188 L 178.746094 73.433594 L 170.480469 65.1875 Z M 148.042969 72.269531 L 166.644531 72.269531 L 170.480469 76.109375 L 170.480469 95.59375 L 166.644531 99.433594 L 148.042969 99.433594 L 148.042969 72.269531 "
       id="path25" />
    <path
       style=" stroke:none;fill-rule:nonzero;fill:rgb(61.521912%,62.304688%,63.476562%);fill-opacity:1;"
       d="M 0 131.921875 L 3.125 131.921875 L 3.125 175.339844 L 0 175.339844 L 0 131.921875 "
       id="path27" />
    <path
       style=" stroke:none;fill-rule:nonzero;fill:rgb(61.521912%,62.304688%,63.476562%);fill-opacity:1;"
       d="M 12.886719 131.921875 L 16.144531 131.921875 L 44.003906 170.652344 L 44.003906 131.921875 L 47.0625 131.921875 L 47.0625 175.339844 L 43.808594 175.339844 L 15.949219 137.132812 L 15.949219 175.339844 L 12.886719 175.339844 L 12.886719 131.921875 "
       id="path29" />
    <g
       clip-path="url(#clip2)"
       clip-rule="nonzero"
       id="g33">
      <path
         style=" stroke:none;fill-rule:nonzero;fill:rgb(61.521912%,62.304688%,63.476562%);fill-opacity:1;"
         d="M 56.5625 167.398438 C 58.039062 169.179688 59.808594 170.632812 61.867188 171.761719 C 63.929688 172.886719 66.433594 173.453125 69.386719 173.453125 C 71.078125 173.453125 72.632812 173.257812 74.042969 172.867188 C 75.453125 172.476562 76.667969 171.902344 77.6875 171.140625 C 78.707031 170.382812 79.496094 169.425781 80.0625 168.277344 C 80.625 167.125 80.910156 165.792969 80.910156 164.273438 C 80.910156 162.667969 80.59375 161.300781 79.964844 160.171875 C 79.335938 159.042969 78.5 158.101562 77.457031 157.339844 C 76.417969 156.582031 75.234375 155.964844 73.910156 155.488281 C 72.585938 155.011719 71.253906 154.574219 69.90625 154.183594 C 68.257812 153.75 66.609375 153.261719 64.960938 152.71875 C 63.3125 152.179688 61.835938 151.460938 60.535156 150.570312 C 59.234375 149.683594 58.179688 148.554688 57.378906 147.1875 C 56.574219 145.820312 56.171875 144.054688 56.171875 141.882812 C 56.171875 140.40625 56.476562 138.996094 57.085938 137.652344 C 57.691406 136.304688 58.570312 135.136719 59.722656 134.136719 C 60.871094 133.140625 62.28125 132.347656 63.953125 131.761719 C 65.621094 131.175781 67.519531 130.882812 69.648438 130.882812 C 71.46875 130.882812 73.085938 131.074219 74.496094 131.46875 C 75.90625 131.859375 77.144531 132.347656 78.207031 132.933594 C 79.269531 133.519531 80.160156 134.15625 80.875 134.851562 C 81.59375 135.546875 82.1875 136.21875 82.667969 136.871094 L 80.453125 138.757812 C 80.0625 138.238281 79.5625 137.683594 78.957031 137.097656 C 78.347656 136.511719 77.609375 135.96875 76.742188 135.46875 C 75.875 134.972656 74.84375 134.558594 73.652344 134.234375 C 72.457031 133.90625 71.078125 133.746094 69.515625 133.746094 C 67.738281 133.746094 66.207031 133.984375 64.929688 134.460938 C 63.648438 134.941406 62.59375 135.570312 61.773438 136.347656 C 60.945312 137.132812 60.339844 138.007812 59.949219 138.984375 C 59.558594 139.960938 59.363281 140.972656 59.363281 142.011719 C 59.363281 143.574219 59.722656 144.867188 60.4375 145.886719 C 61.152344 146.90625 62.097656 147.75 63.269531 148.421875 C 64.441406 149.097656 65.753906 149.648438 67.207031 150.082031 C 68.660156 150.519531 70.125 150.929688 71.601562 151.320312 C 73.117188 151.710938 74.636719 152.199219 76.15625 152.785156 C 77.675781 153.371094 79.03125 154.152344 80.226562 155.128906 C 81.417969 156.105469 82.394531 157.332031 83.15625 158.804688 C 83.914062 160.28125 84.292969 162.105469 84.292969 164.273438 C 84.292969 166.140625 83.902344 167.820312 83.121094 169.316406 C 82.339844 170.816406 81.289062 172.085938 79.964844 173.125 C 78.640625 174.167969 77.070312 174.972656 75.246094 175.535156 C 73.421875 176.097656 71.46875 176.382812 69.386719 176.382812 C 67.566406 176.382812 65.871094 176.183594 64.308594 175.792969 C 62.746094 175.402344 61.328125 174.894531 60.046875 174.265625 C 58.765625 173.636719 57.640625 172.921875 56.660156 172.117188 C 55.683594 171.316406 54.894531 170.480469 54.285156 169.613281 L 56.5625 167.398438 "
         id="path31" />
    </g>
    <path
       style=" stroke:none;fill-rule:nonzero;fill:rgb(61.521912%,62.304688%,63.476562%);fill-opacity:1;"
       d="M 103.363281 134.722656 L 86.507812 134.722656 L 86.507812 131.921875 L 123.347656 131.921875 L 123.347656 134.722656 L 106.488281 134.722656 L 106.488281 175.339844 L 103.363281 175.339844 L 103.363281 134.722656 "
       id="path35" />
    <path
       style=" stroke:none;fill-rule:nonzero;fill:rgb(61.521912%,62.304688%,63.476562%);fill-opacity:1;"
       d="M 129.140625 131.921875 L 132.265625 131.921875 L 132.265625 175.339844 L 129.140625 175.339844 L 129.140625 131.921875 "
       id="path37" />
    <path
       style=" stroke:none;fill-rule:nonzero;fill:rgb(61.521912%,62.304688%,63.476562%);fill-opacity:1;"
       d="M 142.027344 131.921875 L 145.285156 131.921875 L 173.144531 170.652344 L 173.144531 131.921875 L 176.203125 131.921875 L 176.203125 175.339844 L 172.949219 175.339844 L 145.089844 137.132812 L 145.089844 175.339844 L 142.027344 175.339844 L 142.027344 131.921875 "
       id="path39" />
    <g
       clip-path="url(#clip3)"
       clip-rule="nonzero"
       id="g43">
      <path
         style=" stroke:none;fill-rule:nonzero;fill:rgb(61.521912%,62.304688%,63.476562%);fill-opacity:1;"
         d="M 220.789062 168.113281 C 220.53125 168.550781 220.039062 169.222656 219.324219 170.132812 C 218.609375 171.042969 217.609375 171.964844 216.332031 172.898438 C 215.050781 173.832031 213.476562 174.644531 211.613281 175.339844 C 209.746094 176.03125 207.53125 176.382812 204.972656 176.382812 C 201.847656 176.382812 198.996094 175.804688 196.414062 174.65625 C 193.832031 173.507812 191.617188 171.910156 189.773438 169.871094 C 187.929688 167.832031 186.507812 165.425781 185.511719 162.648438 C 184.511719 159.871094 184.011719 156.851562 184.011719 153.597656 C 184.011719 150.433594 184.511719 147.46875 185.511719 144.710938 C 186.507812 141.957031 187.929688 139.550781 189.773438 137.488281 C 191.617188 135.429688 193.832031 133.808594 196.414062 132.640625 C 198.996094 131.46875 201.847656 130.882812 204.972656 130.882812 C 207.53125 130.882812 209.746094 131.230469 211.613281 131.921875 C 213.476562 132.617188 215.050781 133.429688 216.332031 134.363281 C 217.609375 135.296875 218.609375 136.21875 219.324219 137.132812 C 220.039062 138.042969 220.53125 138.714844 220.789062 139.148438 L 218.449219 140.773438 C 218.1875 140.429688 217.761719 139.875 217.179688 139.117188 C 216.59375 138.355469 215.765625 137.585938 214.703125 136.804688 C 213.640625 136.023438 212.328125 135.328125 210.765625 134.722656 C 209.203125 134.113281 207.316406 133.808594 205.101562 133.808594 C 202.324219 133.808594 199.839844 134.320312 197.648438 135.339844 C 195.457031 136.359375 193.601562 137.761719 192.085938 139.539062 C 190.566406 141.320312 189.40625 143.410156 188.601562 145.820312 C 187.800781 148.226562 187.398438 150.820312 187.398438 153.597656 C 187.398438 156.375 187.808594 158.96875 188.636719 161.375 C 189.457031 163.785156 190.628906 165.890625 192.148438 167.691406 C 193.667969 169.492188 195.535156 170.902344 197.746094 171.921875 C 199.960938 172.941406 202.476562 173.453125 205.296875 173.453125 C 207.335938 173.453125 209.128906 173.148438 210.667969 172.539062 C 212.210938 171.933594 213.511719 171.238281 214.574219 170.457031 C 215.636719 169.675781 216.484375 168.90625 217.113281 168.148438 C 217.742188 167.386719 218.1875 166.835938 218.449219 166.488281 L 220.789062 168.113281 "
         id="path41" />
    </g>
    <path
       style=" stroke:none;fill-rule:nonzero;fill:rgb(61.521912%,62.304688%,63.476562%);fill-opacity:1;"
       d="M 240.511719 134.722656 L 223.652344 134.722656 L 223.652344 131.921875 L 260.496094 131.921875 L 260.496094 134.722656 L 243.636719 134.722656 L 243.636719 175.339844 L 240.511719 175.339844 L 240.511719 134.722656 "
       id="path45" />
    <path
       style=" stroke:none;fill-rule:nonzero;fill:rgb(0%,0%,0%);fill-opacity:1;"
       d="M 20.367188 11.679688 L 14.949219 26.035156 L 26.324219 26.035156 Z M 41.980469 39.796875 L 32.066406 39.796875 L 29.035156 32.480469 L 12.511719 32.480469 L 9.75 39.796875 L 0 39.796875 L 14.898438 2.851562 L 25.566406 2.851562 L 41.980469 39.796875 "
       id="path47" />
    <path
       style=" stroke:none;fill-rule:nonzero;fill:rgb(0%,0%,0%);fill-opacity:1;"
       d="M 77.992188 2.851562 L 86.007812 2.851562 L 86.007812 39.796875 L 76.796875 39.796875 L 76.796875 16.71875 L 66.832031 28.308594 L 65.421875 28.308594 L 55.457031 16.71875 L 55.457031 39.796875 L 46.246094 39.796875 L 46.246094 2.851562 L 54.265625 2.851562 L 66.128906 16.558594 L 77.992188 2.851562 "
       id="path49" />
    <path
       style=" stroke:none;fill-rule:nonzero;fill:rgb(0%,0%,0%);fill-opacity:1;"
       d="M 102.246094 33.023438 L 108.257812 33.023438 C 117.519531 33.023438 120.285156 26.742188 120.285156 21.320312 C 120.285156 14.984375 116.871094 9.621094 108.148438 9.621094 L 102.246094 9.621094 Z M 109.34375 2.851562 C 122.828125 2.851562 129.761719 11.246094 129.761719 21.375 C 129.761719 31.992188 123.046875 39.796875 108.3125 39.796875 L 93.039062 39.796875 L 93.039062 2.851562 L 109.34375 2.851562 "
       id="path51" />
    <path
       style=" stroke:none;fill-rule:nonzero;fill:rgb(0%,0%,0%);fill-opacity:1;"
       d="M 167.136719 11.609375 L 148.085938 11.609375 L 136.472656 -0.00390625 L 178.746094 -0.00390625 L 178.746094 42.273438 L 167.136719 30.660156 L 167.136719 11.609375 "
       id="path53" />
    <path
       style=" stroke:none;fill-rule:nonzero;fill:rgb(0%,0%,0%);fill-opacity:1;"
       d="M 148.070312 30.675781 L 148.070312 13.9375 L 136.117188 25.894531 L 136.117188 42.628906 L 152.847656 42.628906 L 164.804688 30.675781 L 148.070312 30.675781 "
       id="path55" />
  </g>
</svg>
