<svg xmlns="http://www.w3.org/2000/svg" id="Layer_2" viewBox="0 0 390.03 136.74"><g id="Sliders"><path d="m208.83,136.05l-12.02-17.04v17.04h-4.53v-23.78h4.6l12.08,17.23v-17.23h4.41v23.78h-4.53Z" style="fill:#0099ae;"></path><path d="m226.36,116.15v6.05h8.2v3.82h-8.2v6.27h8.29v3.76h-12.82v-23.78h12.89v3.88h-8.35Z" style="fill:#0099ae;"></path><path d="m249.64,116.4v19.65h-4.53v-19.65h-4.87v-4.13h14.28v4.13h-4.87Z" style="fill:#0099ae;"></path><path d="m283.97,136.05h-3.97l-5.12-16.7-5.31,16.7h-4.1l-6.98-23.78h4.94l4.56,16.77,5.31-16.77h3.29l5.09,16.49,4.6-16.49h4.78l-7.08,23.78Z" style="fill:#0099ae;"></path><path d="m308.21,136.52c-6.77,0-12.2-5.59-12.2-12.36s5.46-12.39,12.27-12.39,12.39,5.53,12.39,12.36-5.62,12.39-12.45,12.39Zm.06-20.4c-4.5,0-7.76,3.38-7.76,8.04s3.32,7.98,7.73,7.98,7.82-3.57,7.82-7.98c0-4.69-3.35-8.04-7.79-8.04Z" style="fill:#0099ae;"></path><path d="m339.31,136.05l-7.08-10.15v10.15h-4.44v-23.78h8.2c3.91,0,7.14,2.79,7.14,7.14,0,3.82-2.79,5.99-5.81,6.58.47.62,7.55,10.06,7.55,10.06h-5.56Zm-4.66-20.09h-2.39v7.23h2.76c1.52,0,3.45-1.02,3.45-3.76s-1.8-3.48-3.82-3.48Z" style="fill:#0099ae;"></path><path d="m360.17,123.73l9.97,12.33h-6.09l-8.44-10.93v10.93h-4.53v-23.78h4.53v10.56l8.79-10.56h5.84l-10.06,11.46Z" style="fill:#0099ae;"></path><path d="m381.74,136.74c-3.2,0-5.31-.87-7.54-3.29l2.76-2.98c1.06,1.18,2.55,2.17,4.66,2.17,1.83,0,3.48-1.33,3.48-3.17,0-1.52-1.06-2.51-2.48-3.04-.65-.25-1.4-.5-2.27-.84-4.04-1.65-5.31-3.45-5.31-6.74,0-4.07,3.38-6.95,7.33-6.95,2.79,0,4.97.99,6.61,2.79l-2.51,2.95c-.9-.81-1.96-1.8-3.91-1.8-1.55,0-2.98,1.3-2.98,2.89,0,1.43.99,2.2,2.24,2.73.96.4,1.52.65,2.48,1.02,3.32,1.27,5.4,3.57,5.4,7.05,0,4.19-3.85,7.2-7.95,7.2Z" style="fill:#0099ae;"></path><circle cx="134.99" cy="8.28" r="8.28" style="fill:#0099ae;"></circle><rect x="127.26" y="22.54" width="14.19" height="71.98" style="fill:#0099ae;"></rect><path d="m200.54,11.04c9.89,0,18.78,2.79,26.52,7.83v15.79s-8.89-11.01-26.67-11.01c-19.36,0-32.4,14.46-32.4,30.52,0,17.91,14.05,30.12,32.69,30.12,10.9,0,19.93-4.78,26.52-11.68v15.92c-2.72,1.59-13.05,8.36-28.24,8.36-24.66,0-45.02-19.11-45.02-42.86s19.93-43,46.6-43Z" style="fill:#0099ae;"></path><path d="m276.77,11.04c12.76,0,21.36,4.38,29.53,13.27v-11.28h13.33v81.48h-13.62v-11.01c-5.45,7.03-16.92,13.27-29.82,13.27-24.23,0-41.87-19.64-41.87-42.6s17.92-43.13,42.44-43.13Zm-28.24,43.66c0,15.79,12.61,29.99,29.68,29.99s28.96-10.75,28.96-31.72c0-17.12-9.32-30.12-29.1-30.12-17.35,0-29.53,13.93-29.53,31.85Z" style="fill:#0099ae;"></path><path d="m362.5,11.04c11.61,0,20.65,6.1,24.66,15.92l-11.61,4.78c-1.29-3.05-4.73-9.42-13.33-9.42-6.74,0-11.9,4.38-11.9,10.22,0,7.17,6.59,10.22,13.62,13.14,3.16,1.33,5.16,2.25,8.6,3.72,10.61,4.51,17.49,12.34,17.49,22.56,0,15.79-13.91,24.95-29.39,24.95-12.76,0-23.08-6.1-28.24-16.46l11.9-5.84c1.58,3.32,6.31,10.62,16.06,10.62s15.63-5.04,15.63-11.81c0-5.57-3.87-10.22-9.89-12.61-5.59-2.26-11.04-4.64-14.05-5.97-12.19-5.31-15.77-13.93-15.77-21.5,0-12.74,10.9-22.29,26.24-22.29Z" style="fill:#0099ae;"></path><polygon points="97.16 .2 61.23 30.72 88.69 30.72 88.69 30.72 88.69 94.76 107.83 94.76 107.83 .2 97.16 .2" style="fill:#0099ae;"></polygon><polygon points="53.89 36.95 10.12 .33 0 .2 0 94.76 19.14 94.76 19.14 29.79 53.89 58.99 81.07 36.83 53.89 36.95" style="fill:#0099ae;"></polygon></g></svg>